<?xml version="1.0" standalone="no"?>
<!DOCTYPE svg PUBLIC "-//W3C//DTD SVG 20010904//EN"
 "http://www.w3.org/TR/2001/REC-SVG-20010904/DTD/svg10.dtd">
<svg version="1.0" xmlns="http://www.w3.org/2000/svg"
 width="336.000000pt" height="336.000000pt" viewBox="0 0 336.000000 336.000000"
 preserveAspectRatio="xMidYMid meet">
<metadata>
Created by potrace 1.11, written by Peter Selinger 2001-2013
</metadata>
<g transform="translate(0.000000,336.000000) scale(0.100000,-0.100000)"
fill="#000000" stroke="none">
<path d="M1579 3166 c-2 -2 -24 -7 -48 -10 -55 -7 -203 -46 -214 -56 -9 -8
732 -762 743 -755 3 2 6 173 6 381 l-1 377 -25 9 c-34 13 -117 35 -165 43 -44
7 -290 16 -296 11z"/>
<path d="M2130 2539 l0 -542 273 274 273 274 -34 65 c-93 179 -263 345 -449
439 l-63 31 0 -541z"/>
<path d="M1140 3014 c-174 -107 -316 -256 -399 -420 -17 -34 -31 -65 -31 -70
0 -7 706 -10 1038 -5 31 1 20 13 -237 271 -148 149 -276 270 -283 270 -8 0
-47 -21 -88 -46z"/>
<path d="M2323 2102 l-372 -377 381 -3 c299 -2 383 1 390 10 4 7 17 54 29 103
28 115 35 325 14 435 -18 93 -53 210 -63 209 -4 0 -174 -170 -379 -377z"/>
<path d="M675 2448 c-11 -31 -44 -167 -50 -203 -10 -61 -16 -615 -6 -615 8 0
801 796 815 818 6 9 -76 12 -374 12 -295 0 -382 -3 -385 -12z"/>
<path d="M934 1848 l-321 -323 -1 -667 0 -668 324 0 c252 0 324 3 325 13 4 57
3 1967 -1 1967 -3 0 -150 -145 -326 -322z"/>
<path d="M1332 1448 l3 -393 83 -22 c147 -38 302 -47 442 -26 83 13 203 45
227 61 7 5 -121 141 -368 390 -209 210 -382 382 -384 382 -3 0 -4 -177 -3
-392z"/>
<path d="M1629 1661 c-6 -2 113 -128 266 -281 l277 -277 47 26 c190 106 343
264 444 459 l38 72 -53 1 c-234 3 -1010 3 -1019 0z"/>
</g>
</svg>
