<?xml version="1.0" standalone="no"?>
<!DOCTYPE svg PUBLIC "-//W3C//DTD SVG 20010904//EN"
 "http://www.w3.org/TR/2001/REC-SVG-20010904/DTD/svg10.dtd">
<svg version="1.0" xmlns="http://www.w3.org/2000/svg"
 width="1500.000000pt" height="1500.000000pt" viewBox="0 0 1500.000000 1500.000000"
 preserveAspectRatio="xMidYMid meet">
<metadata>
Created by potrace 1.11, written by Peter Selinger 2001-2013
</metadata>
<g transform="translate(0.000000,1500.000000) scale(0.100000,-0.100000)"
fill="#000000" stroke="none">
<path d="M7220 14363 c0 -4 -33 -9 -73 -9 -75 -2 -198 -10 -302 -20 -33 -3
-78 -7 -100 -8 -22 -2 -40 -4 -40 -6 0 -1 -13 -3 -30 -4 -52 -5 -142 -17 -166
-22 -13 -3 -40 -7 -59 -8 -19 -2 -61 -9 -92 -15 -32 -7 -62 -10 -68 -6 -5 3
-10 1 -10 -6 0 -6 -8 -9 -20 -6 -11 3 -20 2 -20 -2 0 -4 -13 -7 -30 -6 -16 1
-30 -1 -30 -4 0 -4 -8 -7 -17 -8 -23 -2 -55 -8 -118 -23 -27 -6 -61 -14 -75
-16 -14 -3 -33 -7 -42 -10 -9 -3 -25 -7 -35 -9 -19 -4 -96 -22 -125 -30 -17
-5 -45 -12 -78 -20 -8 -2 -15 -4 -15 -5 0 -1 -7 -3 -15 -5 -8 -1 -35 -9 -60
-16 -25 -7 -48 -13 -52 -15 -5 -1 -10 -3 -13 -4 -3 -1 -8 -3 -12 -4 -7 -2 -83
-25 -103 -31 -9 -3 -34 -12 -85 -30 -27 -9 -61 -20 -75 -23 -14 -2 -30 -8 -35
-13 -6 -4 -22 -10 -35 -12 -14 -3 -46 -14 -72 -26 -27 -11 -48 -18 -48 -14 0
3 -9 -2 -20 -12 -11 -10 -20 -15 -20 -12 0 4 -20 -2 -44 -13 -24 -10 -47 -16
-50 -13 -3 4 -6 1 -6 -5 0 -7 -9 -12 -20 -12 -11 0 -20 -5 -20 -12 0 -6 -3 -8
-7 -5 -3 4 -17 0 -30 -8 -13 -9 -23 -13 -23 -10 0 3 -13 -1 -30 -10 -16 -8
-32 -15 -35 -15 -3 0 -19 -7 -35 -15 -16 -8 -32 -16 -35 -16 -2 0 -37 -17 -77
-37 -40 -20 -77 -36 -83 -37 -5 0 -16 -6 -23 -13 -8 -7 -17 -10 -22 -7 -5 3
-11 1 -15 -4 -3 -5 -31 -22 -63 -37 -31 -15 -69 -36 -84 -46 -16 -11 -32 -17
-37 -14 -5 3 -11 -1 -15 -9 -3 -8 -14 -15 -25 -15 -11 0 -21 -4 -23 -8 -2 -7
-158 -97 -192 -111 -5 -2 -17 -11 -28 -20 -10 -9 -22 -16 -26 -16 -8 -1 -72
-39 -88 -54 -7 -5 -15 -7 -18 -4 -3 4 -6 2 -6 -4 0 -5 -21 -21 -46 -34 -26
-13 -49 -29 -51 -36 -3 -7 -14 -13 -24 -13 -11 0 -22 -7 -25 -15 -4 -8 -12
-15 -19 -15 -8 0 -20 -6 -27 -13 -7 -8 -33 -27 -57 -43 -93 -62 -81 -53 -193
-138 -27 -20 -48 -33 -48 -31 0 3 -10 -4 -22 -16 -13 -12 -40 -34 -61 -50 -37
-27 -37 -28 -17 -39 11 -6 25 -8 30 -5 5 3 11 1 14 -4 4 -5 32 -15 64 -21 31
-7 61 -15 67 -18 5 -3 16 -7 25 -8 20 -3 45 -9 104 -28 27 -8 53 -13 58 -10 4
3 8 0 8 -6 0 -6 4 -8 10 -5 6 3 16 3 23 -2 6 -4 21 -9 32 -11 28 -5 50 -10 53
-12 1 -2 7 -4 12 -5 6 -1 11 -3 13 -5 1 -1 11 -3 21 -5 11 -2 31 -7 45 -11 14
-4 29 -7 34 -6 4 1 7 -2 7 -6 0 -5 14 -8 30 -7 17 1 30 -1 30 -5 0 -4 21 -12
48 -18 26 -5 74 -17 106 -26 33 -9 67 -18 75 -20 9 -2 23 -5 31 -8 15 -6 84
-25 124 -35 12 -3 36 -7 54 -10 17 -3 32 -8 32 -12 0 -4 8 -8 18 -9 21 -2 57
-10 57 -12 0 -1 11 -4 25 -7 39 -7 55 -11 55 -13 0 -1 8 -3 18 -6 9 -2 25 -6
35 -8 9 -3 17 -5 17 -6 0 -2 14 -5 54 -14 13 -3 49 -13 80 -22 31 -9 66 -18
78 -20 12 -2 34 -9 48 -14 14 -5 25 -7 25 -4 0 4 7 1 15 -6 8 -7 15 -10 15 -7
0 3 21 -2 48 -10 26 -8 58 -17 72 -19 14 -3 40 -9 58 -15 18 -6 41 -12 50 -14
9 -2 19 -4 22 -5 3 -1 10 -3 15 -4 6 -1 17 -5 25 -8 8 -3 35 -11 60 -17 25 -7
54 -14 65 -17 11 -3 30 -7 42 -10 12 -2 34 -9 49 -14 15 -6 29 -8 32 -5 3 2
11 0 19 -6 7 -6 13 -8 13 -4 0 4 6 2 14 -4 8 -6 18 -11 22 -10 5 1 16 0 24 -4
8 -3 35 -10 60 -16 25 -7 54 -14 65 -17 11 -3 27 -7 35 -9 8 -2 15 -4 15 -5 0
-1 7 -3 15 -5 8 -1 42 -10 75 -19 58 -16 77 -21 120 -30 11 -2 33 -9 48 -15
15 -6 42 -13 60 -16 18 -4 51 -13 75 -21 23 -7 50 -14 60 -14 9 -1 35 -8 57
-16 22 -8 51 -17 65 -19 23 -3 39 -7 138 -36 20 -6 52 -13 70 -16 17 -3 32
-10 32 -15 0 -5 6 -8 13 -5 6 2 35 -3 62 -11 28 -8 57 -16 65 -17 8 -2 15 -4
15 -5 0 -2 13 -5 55 -13 14 -3 37 -10 53 -16 15 -6 27 -8 27 -5 0 4 7 1 15 -6
8 -7 15 -9 15 -4 0 4 5 3 11 -3 6 -6 17 -9 24 -6 8 2 23 -1 35 -7 12 -6 29
-13 38 -15 9 -2 37 -8 62 -15 25 -6 51 -12 58 -12 6 -1 12 -4 12 -8 0 -3 10
-6 23 -7 25 -1 40 -5 110 -26 26 -8 47 -13 47 -10 0 3 7 0 15 -7 8 -7 15 -10
15 -6 0 3 11 1 25 -4 27 -10 71 -21 93 -22 6 -1 12 -6 12 -11 0 -6 3 -8 6 -5
3 3 21 2 41 -4 19 -5 45 -12 57 -14 38 -9 51 -12 51 -14 0 -2 30 -9 55 -14 8
-2 22 -6 30 -9 8 -4 26 -9 40 -11 14 -3 26 -5 28 -7 1 -1 5 -2 10 -3 4 -1 12
-4 17 -7 6 -4 18 -5 28 -4 9 2 17 0 17 -5 0 -4 15 -10 33 -13 17 -3 52 -11 77
-17 25 -7 51 -13 58 -13 6 0 12 -4 12 -9 0 -5 4 -7 8 -4 7 4 90 -15 132 -31 8
-3 22 -7 30 -8 8 -2 24 -6 35 -9 11 -3 43 -11 72 -18 28 -7 55 -16 59 -21 4
-4 22 -7 40 -7 18 0 35 -4 38 -9 6 -8 18 -11 109 -27 20 -3 37 -11 37 -17 0
-6 3 -8 6 -5 3 4 20 2 37 -4 18 -5 41 -11 52 -13 11 -2 21 -4 23 -5 1 -2 7 -4
12 -5 6 -1 11 -3 13 -5 1 -1 11 -3 22 -5 26 -5 59 -13 63 -15 1 -2 5 -3 10 -4
83 -18 132 -32 132 -37 0 -4 8 -6 18 -4 9 1 22 0 27 -4 6 -3 15 -6 20 -8 6 -1
21 -5 35 -8 14 -3 32 -8 40 -10 8 -2 15 -4 15 -5 0 -1 7 -3 15 -5 8 -1 39 -10
68 -18 29 -9 54 -16 57 -17 3 0 6 0 8 -1 26 -8 34 -5 30 12 -3 10 -8 19 -12
19 -3 0 -12 15 -20 33 -8 17 -18 34 -22 37 -4 3 -9 12 -11 20 -2 8 -11 23 -20
34 -10 10 -15 23 -12 28 3 4 1 8 -5 8 -6 0 -13 11 -17 25 -3 14 -10 25 -15 25
-5 0 -9 7 -9 15 0 8 -5 15 -11 15 -5 0 -7 5 -4 10 3 6 0 13 -8 16 -7 2 -14 10
-14 17 0 7 -11 31 -26 53 -14 23 -23 45 -19 50 4 4 2 4 -5 1 -7 -5 -16 6 -23
28 -6 19 -16 35 -21 35 -5 0 -9 4 -9 9 0 13 -71 134 -83 142 -5 4 -7 11 -3 17
3 6 2 12 -2 14 -10 4 -82 125 -82 139 0 5 -5 9 -11 9 -5 0 -7 5 -4 10 3 6 2
10 -3 10 -9 0 -37 50 -34 63 1 4 -2 7 -8 7 -5 0 -10 6 -10 13 0 7 -9 23 -20
35 -12 12 -19 22 -16 22 3 0 -15 34 -39 75 -25 42 -45 80 -45 85 0 6 -4 10 -8
10 -5 0 -14 16 -22 35 -8 19 -17 35 -21 35 -3 0 -12 14 -19 30 -7 17 -17 30
-22 30 -5 0 -7 4 -4 8 3 5 -4 21 -15 38 -11 16 -27 44 -35 62 -9 17 -21 32
-26 32 -5 0 -7 4 -4 9 3 4 -6 23 -19 41 -14 19 -25 39 -25 44 -1 6 -16 33 -35
61 -18 27 -31 53 -29 57 3 4 1 8 -3 8 -11 0 -47 60 -36 60 4 0 3 4 -3 8 -6 4
-26 34 -45 67 -18 33 -36 62 -39 65 -4 3 -13 20 -21 38 -8 17 -17 32 -21 32
-5 0 -8 7 -8 15 0 8 -16 38 -35 65 -19 28 -32 50 -28 50 5 0 3 4 -2 8 -6 4
-17 21 -25 37 -8 17 -17 32 -20 35 -3 3 -17 26 -30 53 -14 26 -29 47 -33 47
-5 0 -5 5 -2 10 3 6 2 10 -2 10 -5 0 -14 12 -20 28 -11 27 -43 82 -53 92 -3 3
-12 19 -20 35 -8 17 -32 57 -52 90 -21 33 -38 66 -38 73 0 6 -4 12 -8 12 -5 0
-14 16 -22 35 -8 19 -17 35 -21 35 -3 0 -12 15 -20 33 -7 17 -15 34 -18 37 -8
7 -26 38 -58 98 -15 28 -31 52 -35 52 -4 0 -8 7 -8 16 0 8 -7 22 -15 31 -8 8
-13 19 -10 24 4 5 2 9 -4 9 -5 0 -13 9 -16 20 -3 11 -12 26 -19 32 -6 7 -22
33 -34 58 l-22 45 -134 0 c-74 0 -138 -3 -142 -7 -3 -4 -15 -3 -25 3 -11 5
-19 6 -19 2z"/>
<path d="M8325 14312 c-5 -6 46 -105 58 -110 4 -2 7 -10 7 -18 0 -8 5 -14 11
-14 5 0 7 -5 4 -10 -3 -6 1 -13 9 -16 9 -3 14 -10 11 -14 -3 -5 1 -15 9 -23 8
-8 13 -17 10 -19 -2 -3 2 -11 11 -18 8 -7 15 -19 15 -26 0 -8 5 -14 11 -14 5
0 7 -4 4 -10 -3 -5 -1 -10 4 -10 6 0 11 -5 11 -11 0 -6 9 -24 21 -40 11 -16
17 -29 12 -29 -4 0 -3 -4 3 -8 12 -7 45 -67 44 -78 -1 -3 7 -13 18 -22 10 -9
17 -24 14 -32 -3 -8 -1 -12 3 -8 4 4 20 -16 35 -45 37 -72 54 -101 61 -107 4
-3 16 -26 28 -52 11 -25 24 -48 28 -50 5 -1 19 -25 33 -53 14 -27 31 -56 38
-63 6 -7 12 -20 12 -28 0 -8 3 -14 8 -14 4 0 16 -18 26 -40 11 -22 23 -40 27
-40 5 0 6 -6 3 -13 -2 -7 5 -22 16 -34 11 -12 20 -27 20 -33 0 -5 5 -10 12
-10 6 0 8 -3 5 -6 -4 -4 2 -19 13 -34 11 -16 20 -33 20 -39 0 -6 5 -11 11 -11
5 0 7 -4 4 -10 -3 -5 -1 -10 4 -10 6 0 11 -5 11 -11 0 -6 7 -17 15 -26 8 -8
13 -19 10 -24 -4 -5 -1 -9 4 -9 6 0 11 -4 11 -9 0 -12 63 -115 73 -119 4 -2 5
-7 2 -12 -3 -5 0 -14 7 -22 7 -7 20 -26 28 -43 8 -16 17 -32 20 -35 3 -3 12
-18 20 -35 8 -16 18 -32 21 -35 3 -3 21 -32 38 -65 18 -33 45 -80 61 -105 16
-25 29 -51 29 -57 1 -7 6 -13 11 -13 6 0 10 -5 10 -10 0 -6 11 -28 24 -49 14
-21 22 -42 19 -45 -4 -3 -1 -6 5 -6 7 0 12 -7 12 -15 0 -8 5 -15 10 -15 6 0
10 -6 11 -12 0 -7 14 -33 29 -58 16 -25 36 -60 44 -77 8 -18 20 -33 26 -33 6
0 9 -3 7 -7 -7 -11 39 -94 47 -86 3 3 6 -1 6 -11 0 -10 7 -24 15 -33 8 -8 13
-19 10 -24 -4 -5 -1 -9 4 -9 6 0 11 -7 11 -15 0 -8 4 -15 9 -15 5 0 11 -8 14
-17 9 -27 81 -151 102 -176 11 -12 18 -23 18 -24 -5 -6 20 -63 27 -63 4 0 14
-15 21 -32 7 -18 19 -39 26 -46 7 -7 13 -19 13 -27 0 -7 4 -15 8 -17 7 -3 26
-34 100 -168 14 -25 28 -47 31 -50 3 -3 15 -23 27 -45 44 -84 88 -160 94 -165
3 -3 14 -22 23 -42 10 -20 23 -43 30 -50 7 -7 23 -35 37 -63 14 -27 27 -52 30
-55 5 -5 25 -40 57 -100 10 -19 21 -37 24 -40 9 -8 139 -241 139 -250 0 -5 3
-10 8 -12 9 -4 92 -147 92 -159 0 -5 5 -9 10 -9 6 0 10 -6 10 -12 0 -7 13 -33
29 -57 17 -25 28 -48 25 -53 -3 -4 -1 -8 4 -8 5 0 15 -12 22 -27 8 -16 20 -35
26 -43 7 -8 14 -22 16 -30 2 -8 11 -23 21 -34 9 -11 17 -26 17 -33 0 -7 5 -13
11 -13 5 0 7 -4 4 -10 -3 -5 -1 -10 5 -10 6 0 8 -4 5 -10 -3 -5 -2 -10 3 -10
5 0 12 -8 16 -17 3 -10 10 -25 15 -33 32 -47 91 -152 91 -160 0 -6 5 -10 12
-10 6 0 9 -3 5 -6 -3 -4 4 -21 17 -38 13 -17 27 -41 31 -53 3 -13 11 -23 17
-23 6 0 8 -3 5 -6 -4 -4 2 -19 13 -34 11 -16 20 -35 20 -44 0 -9 5 -16 10 -16
6 0 10 -7 10 -15 0 -8 5 -15 12 -15 6 0 9 -3 5 -6 -3 -3 5 -24 19 -45 13 -21
24 -43 24 -49 0 -5 4 -10 9 -10 5 0 11 -8 15 -17 7 -21 39 -77 55 -96 6 -8 8
-17 4 -20 -3 -4 -1 -7 5 -7 7 0 12 -6 12 -14 0 -8 3 -16 8 -18 4 -1 18 -24 32
-50 13 -27 27 -48 31 -48 3 0 6 -6 6 -13 0 -8 14 -34 31 -59 17 -25 28 -48 25
-52 -4 -3 -1 -6 6 -6 7 0 10 -4 7 -9 -4 -5 -2 -11 3 -13 5 -1 20 -23 34 -48
14 -25 28 -44 31 -42 3 1 6 3 5 5 0 1 4 14 10 30 11 28 22 72 23 95 1 6 4 12
8 12 3 0 6 8 7 18 1 9 7 37 13 62 7 25 13 51 13 58 0 6 4 12 8 12 4 0 6 8 4
18 -1 9 0 22 4 27 3 6 6 15 7 20 2 6 12 44 24 85 12 41 22 82 22 90 0 8 5 21
11 28 5 6 7 12 3 12 -3 0 -1 12 5 28 9 23 15 46 23 87 1 6 5 16 9 23 5 6 5 17
2 22 -3 6 -1 10 6 10 7 0 10 3 7 6 -3 3 1 29 8 57 15 52 20 72 28 105 3 9 9
31 15 49 5 17 7 34 3 37 -3 3 -1 6 4 6 5 0 11 12 12 26 1 14 9 46 17 70 8 23
16 54 19 68 3 14 7 29 10 34 3 5 7 19 9 33 3 13 10 44 17 69 7 25 13 50 14 55
2 6 8 30 15 55 7 25 15 52 17 60 2 8 10 38 18 67 7 28 11 54 8 57 -3 3 -1 6 4
6 5 0 11 8 12 18 2 21 10 57 12 57 1 0 3 7 5 15 2 8 7 26 10 40 4 14 7 33 7
43 -1 9 3 17 7 17 4 0 8 6 8 13 1 6 9 39 19 72 9 33 18 70 18 83 1 12 4 22 7
22 3 0 6 6 7 13 1 14 10 52 12 52 1 0 3 9 5 19 2 11 7 31 11 45 4 14 8 29 9
34 2 4 4 10 5 15 1 4 3 12 5 17 1 6 3 12 4 15 3 5 7 21 14 55 3 11 10 40 17
65 7 25 12 46 11 47 0 2 6 21 14 44 8 23 12 45 9 50 -3 5 -1 9 4 9 5 0 9 6 10
13 0 6 4 26 8 42 4 17 7 38 8 48 0 9 3 17 7 17 4 0 9 12 12 28 3 15 8 37 11
50 8 31 17 65 20 79 1 7 5 15 8 19 4 3 4 12 1 20 -3 8 1 14 8 14 7 0 10 3 7 6
-4 3 -2 20 3 37 6 18 12 39 14 47 1 8 8 35 15 60 7 25 14 55 16 67 2 12 9 34
14 48 5 14 7 25 4 25 -4 0 -1 6 5 13 6 8 8 17 4 20 -3 4 -1 7 6 7 7 0 10 4 7
8 -3 5 2 31 10 58 8 27 17 62 20 79 3 16 9 34 14 41 6 6 7 13 5 16 -3 3 -1 18
6 34 25 67 22 80 -40 141 -76 75 -172 164 -250 233 -35 30 -78 69 -95 85 -18
17 -47 41 -65 55 -18 14 -46 37 -62 53 -17 15 -34 27 -39 27 -5 0 -15 8 -22
18 -7 9 -25 25 -39 34 -14 9 -32 23 -40 30 -8 8 -30 25 -49 38 -43 30 -56 40
-81 63 -10 9 -23 17 -27 17 -5 0 -17 9 -27 20 -10 11 -23 20 -29 20 -7 0 -18
9 -26 19 -7 11 -17 18 -22 15 -4 -3 -8 0 -8 5 0 6 -6 11 -14 11 -8 0 -16 6
-19 13 -3 6 -22 21 -43 32 -43 22 -45 23 -90 60 -18 14 -35 25 -38 25 -9 0
-90 54 -94 63 -2 4 -8 7 -13 7 -5 0 -28 11 -50 26 -22 14 -55 33 -72 43 -18
10 -61 35 -97 56 -36 20 -94 53 -130 72 -36 19 -70 39 -76 44 -6 5 -14 6 -17
2 -4 -3 -7 -1 -7 5 0 7 -7 12 -16 12 -8 0 -22 7 -31 15 -8 8 -19 13 -24 10 -5
-4 -9 -2 -9 4 0 6 -11 13 -25 17 -14 3 -25 11 -25 17 0 6 -3 7 -7 4 -3 -4 -20
2 -38 13 -18 11 -35 17 -38 13 -4 -3 -7 -1 -7 5 0 7 -3 11 -7 11 -13 -3 -73
25 -73 33 0 4 -7 8 -15 8 -12 0 -115 43 -167 71 -10 5 -25 9 -33 9 -8 0 -15 5
-15 10 0 6 -3 9 -7 8 -7 -1 -35 8 -83 29 -8 3 -17 7 -20 7 -3 1 -11 5 -17 9
-7 5 -17 6 -22 3 -5 -4 -11 -1 -13 4 -2 6 -10 12 -18 14 -8 1 -32 10 -54 19
-21 9 -47 17 -57 17 -10 0 -20 4 -24 9 -3 5 -20 13 -38 16 -17 4 -41 12 -52
18 -11 6 -27 13 -35 14 -26 6 -45 11 -47 13 -2 2 -6 3 -10 4 -51 14 -162 50
-177 57 -10 6 -30 13 -45 15 -14 2 -66 15 -116 29 -49 14 -101 28 -115 31 -14
2 -40 10 -58 15 -18 6 -36 8 -39 5 -4 -3 -11 -2 -17 3 -6 6 -25 12 -41 15 -17
2 -30 5 -30 6 0 2 -60 15 -170 35 -11 2 -20 4 -20 5 0 2 -22 6 -75 14 -40 6
-93 15 -130 22 -14 3 -43 7 -65 10 -22 3 -51 7 -65 10 -14 3 -41 7 -60 9 -19
3 -47 6 -62 8 -15 2 -30 2 -33 -1z"/>
<path d="M2601 12309 c-39 -39 -71 -72 -71 -73 0 -2 -24 -27 -52 -57 -29 -30
-82 -88 -118 -128 -36 -40 -70 -78 -75 -85 -9 -9 -190 -233 -248 -306 -7 -8
-23 -31 -37 -50 -13 -19 -30 -41 -37 -48 -6 -6 -15 -21 -18 -32 -4 -11 -10
-18 -15 -15 -5 3 -11 -4 -15 -15 -3 -11 -12 -26 -18 -32 -7 -7 -49 -69 -94
-138 -46 -69 -87 -130 -91 -135 -5 -6 -21 -33 -37 -60 -16 -28 -33 -51 -37
-53 -4 -2 -8 -7 -8 -12 0 -11 -71 -131 -87 -148 -7 -8 -11 -17 -8 -22 3 -5 2
-10 -2 -12 -9 -3 -40 -57 -80 -138 -16 -30 -34 -59 -41 -63 -7 -5 -11 -11 -8
-15 2 -4 -4 -23 -14 -42 -48 -91 -64 -126 -62 -132 1 -5 -3 -8 -9 -8 -5 0 -7
-4 -4 -10 3 -5 2 -10 -4 -10 -5 0 -13 -10 -17 -22 -4 -13 -24 -59 -44 -103
-20 -44 -45 -101 -55 -127 -10 -27 -22 -48 -27 -48 -5 0 -7 -3 -4 -8 2 -4 -4
-25 -14 -47 -11 -22 -19 -43 -20 -47 0 -4 -5 -19 -12 -35 -6 -15 -12 -30 -13
-33 0 -3 -6 -15 -13 -27 -7 -13 -10 -23 -6 -23 3 0 2 -6 -3 -12 -12 -15 -38
-90 -35 -100 1 -5 -3 -8 -10 -8 -6 0 -9 -3 -6 -6 3 -3 -5 -33 -18 -67 -13 -33
-24 -69 -24 -79 0 -10 -4 -18 -10 -18 -5 0 -7 -7 -4 -15 4 -8 2 -15 -3 -15 -5
0 -10 -8 -11 -17 -4 -35 -8 -53 -15 -59 -4 -4 -7 -13 -7 -20 0 -7 -5 -25 -12
-41 -6 -15 -12 -36 -13 -45 -2 -10 -4 -21 -5 -25 -1 -5 -2 -11 -1 -15 0 -5 -4
-8 -11 -8 -6 0 -9 -3 -5 -6 3 -3 -1 -29 -10 -57 -8 -28 -16 -59 -18 -70 -3
-10 -7 -27 -10 -37 -3 -10 -8 -28 -10 -39 -3 -12 -8 -31 -11 -43 -3 -13 -7
-30 -9 -38 -2 -8 -4 -15 -5 -15 -3 0 -10 -41 -13 -72 -1 -18 -5 -33 -8 -33 -3
0 -6 -6 -7 -12 0 -7 -3 -24 -6 -38 -4 -14 -9 -40 -12 -59 -6 -33 -9 -51 -19
-93 -3 -13 -6 -35 -7 -50 -1 -16 -4 -28 -8 -28 -4 0 -7 -12 -7 -27 0 -16 -4
-41 -7 -58 -4 -16 -9 -43 -11 -60 -2 -16 -6 -50 -10 -75 -4 -25 -8 -62 -9 -82
0 -21 -3 -38 -6 -38 -3 0 -6 -9 -6 -20 0 -26 8 -25 59 7 23 14 42 25 43 22 0
-2 9 3 19 11 19 16 42 29 95 56 19 10 41 24 48 30 6 7 22 16 35 20 12 4 24 10
27 14 3 3 30 20 60 36 30 16 57 32 60 35 3 4 24 16 47 28 23 11 45 25 48 31 4
6 11 8 16 5 5 -4 9 -1 9 4 0 6 6 11 13 11 7 0 28 11 47 25 18 13 37 22 41 19
5 -3 14 4 20 15 7 10 19 17 26 14 7 -3 13 -1 13 3 0 5 26 23 58 39 31 17 59
33 62 36 9 10 152 89 161 89 5 0 9 5 9 11 0 5 5 7 10 4 6 -3 10 -1 10 4 0 6 7
11 15 11 9 0 18 7 21 15 4 8 10 13 14 10 5 -3 15 1 23 9 8 8 18 12 22 8 3 -4
11 1 16 11 6 9 17 17 24 17 8 0 15 5 15 11 0 5 4 8 9 4 6 -3 14 2 19 11 5 9
12 16 15 16 19 0 47 11 47 19 0 5 5 9 11 9 6 0 23 9 39 20 15 11 30 17 34 13
3 -3 6 -1 6 5 0 7 6 12 13 12 7 0 23 9 35 20 12 11 24 21 27 21 23 3 45 13 45
20 0 5 7 9 15 9 8 0 15 4 15 9 0 8 37 24 53 22 4 -1 7 3 7 9 0 5 7 10 15 10 8
0 15 5 15 12 0 6 3 9 6 5 3 -3 14 2 25 11 11 9 22 15 26 14 3 -2 9 0 12 5 8
11 61 43 84 50 9 3 17 10 17 15 0 5 5 6 10 3 6 -3 13 1 16 9 3 9 10 14 14 11
4 -3 18 3 31 13 13 10 45 29 72 42 26 14 47 28 47 31 0 7 40 22 53 20 4 -1 7
3 7 8 0 5 14 14 30 21 17 7 30 17 30 23 0 6 3 8 6 5 3 -4 22 5 41 18 19 13 39
22 43 19 4 -3 10 2 14 10 3 8 12 15 20 15 8 0 16 3 18 8 3 7 38 28 103 60 17
8 41 24 54 34 13 10 27 15 32 12 5 -3 9 -1 9 5 0 5 9 13 20 16 11 3 26 12 32
19 7 6 29 20 48 29 19 9 53 28 75 42 22 13 59 33 83 45 23 12 42 26 42 31 0 6
4 8 8 5 5 -3 18 2 28 12 11 9 26 18 34 20 8 2 18 9 22 15 4 7 8 8 8 4 0 -4 19
5 43 20 66 43 81 53 97 60 8 3 51 28 96 55 45 26 84 48 88 48 4 0 14 7 23 15
8 8 19 13 24 10 5 -4 9 -1 9 4 0 6 15 18 33 26 44 21 111 59 117 66 3 4 15 9
28 13 12 4 22 12 22 17 0 5 7 9 15 9 8 0 15 5 15 12 0 6 3 8 6 5 4 -4 19 2 33
12 14 10 36 21 48 25 11 4 24 14 27 22 3 8 10 12 16 9 5 -3 10 -1 10 4 0 6 3
10 8 9 4 -1 39 16 77 39 39 22 74 41 79 41 5 0 12 4 15 9 7 10 35 27 81 50 19
9 37 19 40 22 9 10 64 42 83 48 9 3 17 9 17 13 0 7 29 18 47 18 3 0 9 4 12 9
10 16 129 82 135 76 3 -4 6 -1 6 5 0 6 25 23 55 38 30 16 55 32 55 37 0 4 4 6
9 2 5 -3 12 -1 16 4 3 5 18 16 33 24 67 34 128 71 134 81 4 6 8 8 8 3 0 -8 46
19 68 40 8 7 18 11 23 7 5 -3 12 2 15 10 3 9 10 13 15 10 5 -3 9 0 9 7 0 7 3
9 6 6 4 -4 19 2 33 12 14 10 41 24 59 32 17 8 32 18 32 22 0 5 5 5 10 2 6 -3
10 -2 10 3 0 9 37 25 53 23 4 -1 7 3 7 7 0 5 25 22 55 37 30 16 55 33 55 37 0
4 6 5 14 2 7 -3 16 2 20 11 3 9 10 13 16 10 5 -3 10 -1 10 4 0 6 5 11 12 11 6
0 19 6 27 14 9 7 41 26 71 42 30 16 57 32 60 36 3 4 22 14 43 23 20 8 37 20
37 26 0 5 4 8 9 5 5 -3 19 3 32 13 31 24 92 56 102 53 4 -1 10 5 13 13 3 8 9
13 13 10 4 -2 8 2 8 8 0 7 -10 14 -21 15 -35 4 -50 7 -71 18 -11 6 -30 9 -42
8 -13 0 -23 2 -23 6 0 4 -6 7 -12 8 -7 0 -22 3 -33 6 -11 3 -38 10 -60 16 -22
6 -49 13 -60 16 -11 3 -27 7 -35 9 -8 2 -15 4 -15 5 0 1 -11 4 -25 7 -38 7
-55 11 -57 13 -2 2 -7 4 -13 5 -5 1 -13 4 -17 5 -5 1 -12 2 -17 1 -4 -1 -14 4
-22 10 -8 6 -14 9 -14 6 0 -4 -18 0 -41 8 -23 8 -45 12 -50 9 -5 -3 -9 0 -9 7
0 7 -3 10 -6 6 -3 -3 -23 1 -45 8 -21 8 -39 12 -39 10 0 -2 -18 2 -40 10 -22
8 -42 14 -45 15 -3 0 -6 0 -7 1 -2 0 -16 3 -33 5 -16 3 -35 10 -42 16 -7 6
-13 8 -13 5 0 -3 -30 3 -67 14 -38 11 -81 22 -98 25 -16 3 -37 8 -45 11 -8 3
-19 7 -25 9 -5 1 -37 10 -70 19 -33 9 -69 18 -79 20 -10 3 -34 9 -53 16 -19 6
-44 12 -56 14 -12 2 -36 8 -54 13 -17 6 -34 8 -37 4 -3 -3 -6 -1 -6 5 0 6 -15
13 -32 16 -18 3 -43 8 -55 11 -13 3 -31 8 -40 11 -10 2 -41 11 -70 19 -28 7
-54 11 -57 8 -3 -3 -6 0 -6 6 0 6 -8 11 -17 11 -15 0 -48 7 -108 25 -47 13
-103 29 -115 31 -8 2 -48 12 -87 23 -40 12 -73 18 -73 15 0 -3 -6 -1 -12 5 -7
5 -26 12 -43 15 -16 3 -46 11 -65 17 -19 6 -48 14 -65 17 -16 3 -38 9 -47 14
-9 5 -27 9 -41 9 -13 0 -27 3 -31 8 -4 4 -11 7 -14 8 -4 0 -25 4 -47 9 -22 5
-43 8 -47 7 -5 -1 -8 3 -8 9 0 6 -6 9 -14 6 -7 -3 -17 -2 -22 3 -5 4 -25 11
-44 13 -38 6 -76 15 -100 24 -8 3 -19 7 -25 8 -5 2 -55 15 -110 30 -55 14
-108 28 -117 31 -29 7 -50 12 -113 30 -33 9 -65 17 -72 18 -7 1 -16 5 -19 9
-4 4 -18 7 -31 7 -14 0 -33 5 -43 10 -10 6 -30 11 -44 12 -15 1 -26 5 -26 9 0
3 -6 6 -13 6 -7 0 -24 3 -39 6 -23 6 -35 -2 -97 -64z"/>
<path d="M12887 11743 c-5 -9 -20 -64 -22 -78 -1 -5 -4 -20 -9 -32 -4 -12 -9
-30 -11 -40 -2 -10 -9 -36 -15 -58 -6 -22 -13 -47 -15 -55 -2 -8 -4 -15 -5
-15 -1 0 -4 -11 -7 -25 -7 -39 -11 -55 -13 -55 -1 0 -4 -8 -14 -50 -2 -11 -9
-32 -14 -46 -6 -15 -9 -29 -6 -31 2 -3 -2 -20 -10 -39 -8 -19 -16 -48 -19 -66
-3 -17 -8 -36 -11 -41 -5 -8 -16 -53 -19 -82 -1 -8 -4 -17 -7 -20 -5 -5 -58
-203 -75 -282 -3 -13 -9 -34 -14 -48 -8 -22 -12 -37 -28 -100 -2 -8 -5 -25 -7
-38 -1 -12 -6 -25 -9 -29 -4 -3 -7 -17 -7 -30 0 -12 -3 -23 -7 -23 -5 0 -9
-11 -9 -25 -1 -14 -5 -33 -9 -43 -12 -25 -16 -45 -16 -64 0 -10 -4 -20 -9 -23
-5 -3 -7 -12 -3 -20 3 -8 1 -15 -4 -15 -5 0 -10 -6 -11 -12 0 -7 -3 -24 -6
-38 -3 -14 -8 -34 -10 -45 -3 -11 -9 -34 -15 -52 -5 -17 -7 -34 -3 -37 3 -3 1
-6 -5 -6 -5 0 -10 -6 -10 -12 -1 -21 -11 -61 -21 -88 -5 -14 -10 -28 -11 -32
0 -5 -1 -9 -2 -10 -2 -7 -8 -36 -14 -68 -3 -19 -9 -37 -13 -40 -4 -3 -7 -12
-7 -20 1 -8 -1 -19 -4 -25 -3 -5 -6 -14 -7 -20 -1 -5 -10 -39 -19 -75 -9 -36
-18 -69 -19 -75 -1 -5 -5 -16 -9 -22 -5 -7 -5 -13 -1 -13 3 0 2 -6 -3 -12 -6
-7 -9 -21 -8 -30 2 -10 0 -18 -4 -18 -4 0 -8 -6 -9 -12 0 -7 -4 -26 -8 -43 -3
-16 -7 -37 -8 -45 -1 -9 -5 -20 -8 -26 -4 -6 -10 -24 -13 -40 -8 -38 -13 -58
-15 -61 -3 -3 -4 -7 -14 -48 -4 -16 -10 -37 -13 -45 -3 -8 -7 -24 -9 -35 -5
-29 -10 -48 -17 -65 -4 -8 -9 -26 -11 -40 -3 -14 -5 -25 -6 -25 -1 0 -3 -7 -5
-15 -7 -36 -36 -146 -42 -160 -3 -8 -7 -19 -9 -25 -1 -5 -7 -30 -14 -55 -6
-25 -12 -53 -13 -62 -1 -10 -6 -18 -11 -18 -5 0 -7 -3 -3 -6 3 -3 -1 -27 -9
-52 -8 -26 -17 -56 -19 -67 -8 -41 -11 -50 -18 -62 -5 -7 -6 -13 -3 -13 3 0
-1 -18 -9 -41 -8 -23 -12 -45 -9 -50 3 -5 1 -9 -3 -9 -5 0 -10 -8 -11 -17 -3
-32 -7 -48 -16 -61 -4 -7 -5 -16 -2 -19 3 -3 1 -12 -5 -20 -6 -7 -9 -13 -5
-13 3 0 1 -12 -5 -27 -6 -16 -12 -35 -14 -43 -2 -8 -8 -35 -15 -60 -7 -25 -13
-49 -14 -55 -1 -5 -7 -26 -14 -45 -6 -19 -13 -46 -16 -60 -10 -50 -15 -70 -20
-78 -3 -5 -8 -22 -11 -38 -8 -38 -13 -58 -15 -61 -6 -7 -24 -97 -22 -105 1 -5
-3 -8 -9 -8 -6 0 -9 -6 -6 -14 3 -8 3 -17 -1 -20 -3 -4 -7 -12 -8 -19 -2 -7
-6 -23 -9 -37 -3 -14 -8 -32 -10 -40 -2 -8 -4 -16 -5 -17 -5 -6 -22 -88 -22
-100 0 -5 -4 -13 -10 -20 -5 -7 -12 -25 -14 -40 -7 -44 -12 -68 -14 -68 -1 0
-3 -8 -6 -17 -2 -10 -6 -26 -8 -35 -3 -10 -5 -18 -6 -18 -1 0 -3 -7 -5 -15 -2
-8 -11 -44 -20 -80 -10 -36 -19 -72 -20 -80 -2 -8 -4 -15 -5 -15 -1 0 -3 -8
-6 -17 -2 -10 -6 -26 -8 -35 -3 -10 -5 -18 -6 -18 -1 0 -3 -7 -5 -15 -2 -8 -7
-26 -10 -40 -4 -14 -7 -31 -7 -37 -1 -7 -5 -13 -10 -13 -5 0 -6 -5 -3 -10 4
-6 -1 -32 -10 -59 -8 -26 -18 -59 -21 -72 -9 -39 -12 -54 -14 -54 -2 0 -10
-36 -12 -57 -1 -10 -6 -18 -11 -18 -5 0 -7 -6 -4 -14 3 -7 0 -19 -6 -25 -6 -6
-8 -11 -5 -11 4 0 2 -15 -4 -32 -5 -18 -11 -42 -13 -53 -2 -11 -4 -20 -5 -20
-1 0 -3 -7 -5 -15 -2 -8 -13 -45 -24 -82 -11 -38 -17 -68 -14 -68 3 0 0 -7 -7
-15 -7 -8 -9 -15 -5 -15 4 0 2 -6 -4 -13 -6 -8 -8 -16 -6 -19 3 -3 1 -17 -5
-32 -5 -15 -12 -37 -14 -49 -3 -12 -12 -45 -19 -74 -8 -28 -12 -54 -9 -57 3
-3 0 -6 -7 -6 -8 0 -11 -7 -7 -15 3 -8 1 -15 -5 -15 -6 0 -7 -4 -4 -10 3 -6 3
-16 -1 -22 -8 -13 -10 -20 -20 -80 -3 -21 -11 -38 -17 -38 -6 0 -8 -3 -5 -6 4
-3 2 -20 -4 -37 -5 -18 -11 -41 -13 -52 -1 -11 -3 -20 -4 -20 -2 0 -4 -8 -6
-17 -4 -22 13 -24 21 -3 4 8 11 12 16 9 6 -4 13 -2 17 3 3 6 24 20 46 32 103
56 120 67 123 74 2 4 8 5 13 1 5 -3 9 -1 9 5 0 9 26 21 44 20 5 0 12 5 16 12
8 12 84 57 232 137 21 10 34 22 31 26 -5 5 12 8 34 5 3 0 10 6 15 15 5 9 13
16 18 16 12 0 133 71 141 83 3 5 10 9 15 8 5 0 25 9 44 21 19 11 37 20 40 20
3 -1 15 8 27 20 12 11 26 17 31 14 6 -3 13 1 16 10 3 8 10 12 16 9 5 -3 10 -1
10 4 0 6 5 11 12 11 6 0 19 6 27 14 9 7 41 26 71 42 30 16 57 31 60 35 3 3 41
25 85 49 44 24 91 52 104 62 13 10 27 15 32 12 5 -3 9 -1 9 4 0 5 14 15 30 22
17 7 30 17 30 22 0 5 4 7 9 4 5 -3 14 1 21 9 7 8 16 12 21 9 5 -3 12 2 15 10
3 9 12 16 20 16 8 0 14 4 14 10 0 5 3 9 8 9 18 -3 31 3 58 26 15 13 30 22 32
20 3 -2 17 4 32 15 16 11 33 20 39 20 6 0 11 4 11 9 0 5 11 12 25 15 14 4 25
11 25 16 0 6 9 10 19 10 11 0 21 4 23 8 2 5 38 27 81 51 42 23 77 47 77 52 0
6 4 8 9 4 5 -3 12 -1 16 5 4 6 11 8 16 5 5 -4 9 -1 9 4 0 6 7 11 15 11 7 0 19
8 24 18 6 9 11 13 11 9 0 -11 60 25 60 36 0 4 4 6 9 2 5 -3 16 2 24 10 9 8 26
20 39 25 13 6 46 24 73 41 28 16 65 37 83 45 17 8 32 19 32 25 0 5 4 8 9 5 5
-3 19 3 32 13 13 10 41 26 62 36 20 9 37 22 37 27 0 5 5 6 10 3 6 -3 10 -1 10
5 0 7 6 10 14 7 7 -3 20 3 29 14 9 10 24 19 32 19 8 0 15 5 15 10 0 6 7 10 15
10 8 0 15 5 15 11 0 5 5 7 10 4 6 -3 10 -2 10 3 0 6 11 13 25 16 14 4 25 11
25 16 0 6 6 10 14 10 8 0 22 7 30 16 9 8 16 13 16 9 0 -3 17 6 37 20 21 14 43
25 50 25 7 0 13 5 13 10 0 6 7 10 15 10 8 0 15 5 15 11 0 5 4 8 9 4 6 -3 14 3
20 12 6 10 11 14 11 10 0 -5 12 0 28 11 28 20 52 30 64 28 3 0 15 10 25 24 17
22 19 41 18 150 -1 69 -5 132 -10 140 -6 9 -4 11 4 5 10 -6 11 -3 2 12 -7 14
-7 23 1 31 7 7 8 12 2 12 -5 0 -10 33 -11 73 -2 81 -11 222 -13 222 -2 0 -11
104 -13 157 -1 21 -4 38 -7 38 -3 0 -6 17 -7 38 -2 38 -7 80 -19 154 -3 24 -8
54 -9 68 -2 14 -4 25 -5 25 -2 0 -10 60 -13 98 -1 9 -4 17 -8 17 -3 0 -5 14
-4 30 1 17 -2 33 -6 36 -4 2 -6 13 -4 24 2 11 0 22 -5 25 -4 3 -7 16 -5 30 1
14 -1 25 -6 25 -4 0 -7 8 -7 18 1 16 -2 27 -16 87 -2 11 -12 56 -21 100 -10
44 -19 86 -21 93 -2 7 -4 16 -5 20 -1 4 -6 18 -11 32 -6 14 -11 34 -13 45 -3
25 -63 233 -69 244 -3 4 -8 23 -11 41 -3 19 -11 40 -17 47 -6 7 -7 13 -3 13 4
0 2 7 -5 15 -7 9 -10 18 -7 22 4 3 3 11 -2 17 -4 6 -19 43 -31 81 -12 39 -26
75 -30 80 -5 6 -9 15 -9 20 -2 20 -24 80 -32 89 -5 6 -9 17 -9 26 0 9 -9 33
-20 55 -11 22 -20 44 -20 51 0 6 -6 24 -14 40 -8 16 -21 45 -29 64 -8 19 -25
58 -38 85 -12 28 -23 52 -24 55 -1 3 -10 23 -20 45 -10 22 -19 42 -20 45 -6
22 -61 126 -68 131 -5 3 -8 9 -7 13 1 7 -73 158 -114 231 -107 192 -129 230
-138 233 -4 2 -8 8 -8 14 0 6 -18 39 -40 74 -22 35 -40 69 -40 75 0 7 -3 9 -6
6 -4 -4 -16 10 -27 31 -11 20 -25 40 -31 44 -6 4 -7 8 -1 8 7 0 6 3 0 8 -6 4
-33 41 -60 82 -27 41 -54 80 -60 87 -5 7 -16 19 -22 27 -7 8 -13 19 -13 25 0
5 -3 11 -7 13 -5 2 -24 26 -42 53 -19 28 -38 52 -41 55 -3 3 -17 21 -30 40
-13 19 -32 42 -42 51 -10 9 -18 21 -18 27 0 14 -17 25 -23 15z"/>
<path d="M3688 9310 c-14 -10 -28 -16 -32 -13 -3 3 -6 1 -6 -5 0 -7 -7 -12
-15 -12 -9 0 -18 -7 -21 -15 -4 -8 -14 -15 -24 -15 -9 0 -27 -9 -40 -20 -13
-11 -28 -20 -35 -20 -6 0 -20 -8 -31 -18 -21 -19 -75 -46 -86 -44 -5 1 -8 -2
-8 -6 0 -5 -18 -17 -40 -28 -22 -10 -40 -22 -40 -26 0 -5 -7 -8 -15 -8 -8 0
-15 -5 -15 -11 0 -5 -4 -8 -9 -4 -5 3 -15 -1 -23 -8 -7 -7 -25 -18 -40 -24
-16 -7 -28 -17 -28 -23 0 -6 -4 -9 -9 -5 -5 3 -12 1 -16 -5 -4 -6 -11 -8 -16
-5 -5 4 -9 2 -9 -3 0 -5 -13 -15 -30 -22 -16 -7 -30 -17 -30 -22 0 -5 -4 -7
-9 -4 -5 3 -14 -1 -21 -9 -7 -8 -17 -15 -22 -15 -5 0 -34 -16 -64 -35 -30 -20
-60 -32 -66 -29 -6 4 -8 3 -5 -3 3 -5 -15 -20 -41 -33 -26 -13 -54 -28 -62
-35 -8 -7 -40 -26 -70 -42 -82 -44 -104 -57 -110 -64 -3 -4 -15 -9 -27 -13
-13 -4 -23 -11 -23 -16 0 -4 -12 -11 -27 -15 -15 -3 -30 -10 -33 -14 -7 -11
-88 -58 -122 -72 -16 -6 -28 -15 -28 -21 0 -5 -4 -7 -9 -4 -5 4 -11 3 -13 -1
-4 -10 -57 -42 -80 -50 -10 -3 -18 -10 -18 -15 0 -5 -4 -6 -10 -3 -5 3 -10 1
-10 -4 0 -6 -6 -11 -14 -11 -7 0 -25 -9 -40 -21 -14 -11 -26 -18 -26 -14 0 4
-7 -1 -16 -9 -8 -9 -20 -14 -25 -11 -5 4 -9 2 -9 -4 0 -6 -19 -20 -42 -32 -24
-12 -46 -27 -50 -33 -4 -6 -8 -7 -8 -2 0 5 -9 1 -20 -9 -11 -10 -20 -15 -20
-11 0 4 -16 -5 -35 -20 -19 -14 -35 -24 -35 -20 0 3 -9 -2 -20 -12 -12 -9 -25
-17 -30 -17 -4 0 -20 -10 -33 -22 -14 -12 -28 -19 -31 -16 -3 4 -14 -1 -23 -9
-10 -9 -38 -27 -63 -40 -110 -61 -169 -96 -180 -108 -3 -3 -12 -6 -20 -8 -8
-2 -22 -10 -31 -18 -8 -8 -20 -14 -25 -14 -5 0 -20 -9 -34 -20 -14 -11 -33
-20 -42 -20 -10 0 -18 -5 -18 -11 0 -5 -13 -15 -30 -20 -16 -6 -30 -15 -30
-21 0 -5 -4 -6 -10 -3 -6 3 -10 2 -10 -3 0 -4 -16 -14 -35 -22 -19 -8 -35 -17
-35 -22 0 -4 -5 -8 -10 -8 -6 0 -35 -15 -64 -34 -29 -18 -62 -37 -74 -40 -12
-4 -22 -12 -22 -17 0 -6 -4 -7 -10 -4 -5 3 -10 2 -10 -4 0 -5 -9 -12 -19 -16
-11 -3 -36 -17 -56 -31 -20 -13 -33 -19 -29 -12 4 7 -4 4 -17 -8 -13 -12 -31
-24 -39 -27 -8 -4 -37 -20 -65 -37 -27 -17 -61 -36 -75 -43 -14 -6 -27 -15
-30 -19 -8 -10 -5 -276 3 -284 3 -3 2 -17 -3 -30 -5 -13 -6 -24 -2 -24 4 0 7
-33 8 -73 1 -73 10 -215 20 -297 2 -25 7 -65 10 -90 2 -25 7 -63 10 -85 2 -22
6 -57 7 -77 0 -21 4 -38 7 -38 3 0 6 -17 7 -38 3 -41 11 -97 13 -97 1 0 3 -11
5 -25 8 -60 22 -145 25 -145 1 0 3 -11 4 -25 0 -14 4 -30 8 -36 4 -6 8 -29 9
-52 2 -23 6 -42 9 -42 4 0 7 -12 8 -27 1 -35 5 -55 16 -71 4 -7 6 -16 3 -18
-3 -3 3 -31 12 -62 9 -31 16 -64 16 -72 0 -8 2 -17 6 -20 7 -5 21 -68 22 -102
1 -10 5 -18 10 -18 4 0 5 -4 2 -10 -3 -5 -2 -10 2 -10 5 0 10 -15 11 -32 2
-18 7 -37 12 -42 4 -4 6 -15 3 -22 -3 -8 0 -14 6 -14 6 0 8 -7 5 -15 -4 -8 -2
-15 3 -15 8 0 12 -15 15 -57 1 -7 4 -13 8 -13 4 0 7 -6 7 -13 0 -13 57 -195
72 -232 13 -29 45 -118 47 -130 1 -5 9 -27 18 -47 9 -21 16 -40 17 -43 0 -2
11 -29 24 -59 13 -30 21 -57 18 -60 -4 -3 -1 -6 6 -6 7 0 9 -4 6 -10 -3 -5 -1
-10 4 -10 6 0 11 -6 11 -14 0 -8 19 -54 42 -103 23 -48 40 -94 39 -100 -1 -7
2 -13 7 -13 9 0 25 -37 23 -52 -1 -5 4 -8 9 -8 5 0 9 -3 8 -7 -3 -11 34 -87
46 -95 6 -4 7 -8 3 -8 -9 0 23 -61 38 -72 6 -4 6 -8 2 -8 -4 0 7 -26 25 -57
87 -157 110 -199 115 -215 3 -10 8 -18 12 -18 4 0 13 -16 21 -35 8 -19 17 -35
22 -35 4 0 8 -6 8 -14 0 -7 7 -19 15 -26 8 -7 13 -16 10 -20 -2 -4 4 -15 15
-25 11 -10 20 -24 20 -32 0 -7 5 -13 10 -13 6 0 10 -7 10 -15 0 -8 5 -15 11
-15 5 0 7 -4 4 -10 -3 -5 -1 -10 4 -10 6 0 11 -7 11 -15 0 -8 10 -25 23 -37
12 -13 23 -30 25 -38 2 -8 7 -17 10 -20 11 -8 108 -154 115 -172 3 -10 11 -18
17 -18 5 0 10 -6 10 -13 0 -7 9 -19 20 -27 11 -8 20 -20 20 -26 0 -10 17 -32
70 -92 12 -12 18 -22 15 -22 -4 0 10 -20 31 -45 20 -25 40 -45 44 -45 5 0 12
15 16 32 4 18 9 38 10 43 2 6 5 20 8 33 3 13 8 32 11 42 6 19 12 44 22 90 3
14 10 30 15 37 5 7 7 17 3 23 -3 5 -2 10 4 10 5 0 8 9 6 20 -2 11 1 20 7 20 6
0 9 3 6 6 -4 3 -2 20 3 37 6 18 12 43 15 57 2 14 9 36 13 50 9 23 24 85 21 85
0 0 8 25 19 57 11 31 17 59 14 62 -3 3 0 12 7 21 7 8 10 15 6 15 -3 0 0 15 7
33 8 17 13 40 11 50 -1 9 1 17 5 17 7 0 9 7 13 50 1 11 5 20 8 20 4 0 7 6 8
13 1 18 12 69 19 92 4 11 8 26 10 32 5 22 9 36 22 83 7 25 15 54 17 66 2 12
10 40 18 63 9 22 13 41 11 41 -3 0 0 11 5 25 5 14 12 38 15 53 7 31 10 41 18
62 3 8 14 49 23 90 10 41 20 77 23 80 3 3 7 14 8 25 4 35 8 50 16 63 5 6 6 12
2 12 -3 0 1 15 9 34 8 19 12 37 9 40 -3 2 -1 11 3 18 9 13 11 24 18 70 3 15 8
33 12 40 9 13 13 29 16 61 1 9 5 17 9 17 4 0 6 8 4 18 -1 9 3 23 9 31 6 8 10
16 8 18 -1 2 0 13 3 26 4 13 8 32 10 43 2 10 4 19 5 19 1 0 3 7 5 15 2 8 8 30
14 48 5 17 7 32 4 32 -3 0 0 7 7 15 7 8 10 15 6 15 -3 0 -1 12 5 28 6 15 12
36 14 47 2 11 11 45 19 75 9 30 18 67 21 82 3 15 10 40 16 55 6 15 13 42 16
58 3 17 9 38 14 48 5 9 7 17 5 17 -3 0 -1 12 5 28 6 15 12 36 14 47 4 23 10
48 24 93 5 18 10 35 10 37 1 3 1 6 2 8 0 1 2 9 4 17 2 8 9 33 15 55 6 22 13
51 16 64 3 14 8 29 12 35 3 6 7 17 8 26 1 8 5 26 9 40 3 14 8 32 10 40 2 8 4
15 5 15 1 0 3 7 5 15 1 8 8 35 15 60 11 40 16 59 23 95 2 6 6 16 11 23 4 7 6
16 3 18 -3 3 2 22 10 42 8 20 15 38 14 40 0 1 -1 3 0 5 0 1 3 13 6 27 7 38 11
55 13 58 2 1 4 7 5 12 1 6 3 11 5 13 2 2 6 18 14 60 3 16 10 35 16 42 7 8 9
19 5 25 -3 5 -3 16 2 23 4 6 8 17 10 22 1 6 4 20 7 33 3 12 15 57 26 100 12
42 24 86 26 97 10 42 13 50 14 50 3 0 22 85 23 103 0 6 5 12 10 12 5 0 7 7 3
15 -3 8 0 15 7 15 8 0 8 3 -2 9 -7 5 -9 10 -4 12 8 3 24 55 78 262 6 22 16 59
18 72 2 6 5 15 8 20 4 6 5 18 4 28 -2 9 2 17 8 17 5 0 8 3 4 6 -3 3 1 29 10
57 8 28 17 58 19 66 19 81 50 187 56 189 5 2 6 7 4 11 -3 4 2 32 10 62 8 30
17 61 19 69 2 8 4 15 5 15 1 0 3 12 4 26 2 14 6 31 10 37 9 15 18 52 18 75 -1
9 4 17 10 17 6 0 9 3 6 6 -4 3 2 34 12 69 10 35 16 66 12 69 -3 3 1 6 8 6 7 0
11 3 8 6 -4 3 -2 20 3 37 6 18 12 40 14 49 2 10 16 62 30 115 32 115 36 134
37 151 1 6 5 12 10 12 5 0 6 5 3 10 -4 6 -2 16 3 23 5 7 10 19 10 27 1 15 8
50 13 60 1 3 3 10 4 15 1 6 4 17 8 25 14 40 32 140 24 140 -2 0 -16 -9 -29
-20z"/>
<path d="M7724 9135 c-12 -13 -12 -78 1 -87 7 -5 7 -10 0 -15 -12 -9 -16 -83
-4 -83 4 0 4 -14 -1 -30 -6 -21 -5 -28 2 -24 7 4 8 2 4 -4 -12 -19 -13 -81 -2
-86 7 -3 8 -7 1 -13 -12 -10 -16 -83 -4 -83 4 0 4 -14 -1 -30 -6 -21 -5 -28 2
-24 7 4 8 2 4 -4 -12 -19 -13 -81 -2 -86 7 -3 8 -7 1 -13 -12 -10 -16 -83 -4
-83 4 0 4 -14 -1 -30 -6 -21 -5 -28 2 -24 7 4 8 2 4 -4 -12 -19 -13 -81 -2
-86 7 -3 8 -7 1 -13 -12 -10 -16 -83 -4 -83 4 0 4 -14 -1 -30 -6 -21 -5 -28 2
-24 7 4 8 2 4 -4 -12 -19 -13 -81 -2 -86 7 -3 8 -7 1 -13 -12 -10 -16 -83 -4
-83 4 0 4 -14 -1 -30 -6 -21 -5 -28 2 -24 7 4 8 2 4 -4 -12 -19 -13 -81 -2
-86 7 -3 8 -7 1 -13 -12 -10 -16 -83 -4 -83 4 0 4 -14 -1 -30 -6 -21 -5 -28 2
-24 7 4 8 2 4 -4 -12 -19 -13 -81 -2 -86 7 -3 8 -7 1 -13 -12 -10 -16 -83 -4
-83 4 0 4 -14 -1 -30 -6 -21 -5 -28 2 -24 7 4 8 2 4 -4 -12 -19 -13 -81 -2
-86 7 -3 8 -7 1 -13 -12 -10 -13 -33 -2 -50 5 -7 4 -13 -1 -13 -12 0 -9 -73 3
-82 7 -5 7 -10 0 -15 -12 -9 -13 -35 -3 -43 9 -7 672 -4 713 3 89 15 225 63
277 99 14 10 31 18 37 18 6 0 11 5 11 12 0 6 2 9 5 6 10 -10 155 123 155 141
0 6 4 11 8 11 11 0 62 78 62 96 0 8 4 14 9 14 8 0 37 72 46 118 3 12 8 34 11
50 8 37 11 192 3 192 -4 0 -5 10 -5 23 1 12 -6 43 -15 68 -10 26 -15 50 -12
53 4 3 1 6 -5 6 -7 0 -12 9 -12 20 0 11 -4 20 -10 20 -5 0 -10 6 -10 13 0 14
-59 100 -72 105 -5 2 -8 7 -8 12 0 4 -16 24 -35 43 -19 19 -35 33 -35 31 0 -2
-10 7 -23 19 -19 18 -21 26 -13 42 6 11 11 22 11 25 1 3 7 19 14 35 13 30 15
40 25 109 4 21 9 42 12 47 3 5 1 9 -5 9 -10 0 -10 18 2 37 4 6 3 14 -2 17 -5
4 -8 17 -6 31 1 14 -2 25 -7 25 -5 0 -7 4 -3 10 3 5 1 17 -4 27 -9 17 -23 53
-25 63 -4 22 -65 108 -109 153 -45 47 -207 158 -207 142 0 -3 -13 1 -30 10
-16 9 -30 13 -30 9 0 -4 -6 -1 -13 5 -8 6 -17 8 -20 4 -4 -3 -13 -1 -20 5 -8
7 -16 10 -19 7 -2 -3 -19 -1 -36 5 -23 6 -30 6 -26 -2 5 -7 2 -8 -7 -3 -20 13
-564 13 -575 0z m576 -457 c0 -5 7 -8 15 -8 31 0 64 -24 75 -54 9 -25 7 -35
-8 -56 -11 -14 -23 -23 -27 -22 -4 2 -11 -1 -14 -7 -8 -12 -80 -28 -126 -27
-19 1 -30 6 -31 16 -1 8 -3 17 -4 20 -7 20 -7 40 2 40 7 0 7 5 -1 13 -6 8 -8
17 -4 21 4 4 6 21 5 39 l-2 33 60 -1 c33 0 60 -3 60 -7z m50 -639 c0 -4 7 -6
17 -5 18 3 81 -17 122 -39 42 -22 101 -85 101 -108 0 -7 3 -17 7 -21 11 -11
11 -70 -1 -91 -5 -11 -10 -23 -11 -26 -2 -29 -121 -119 -158 -119 -10 0 -17
-4 -17 -8 0 -9 -7 -10 -120 -15 -110 -4 -121 -2 -110 28 5 13 6 26 2 29 -10
10 -11 36 -1 36 5 0 5 10 0 23 -5 13 -5 30 -1 37 5 8 5 19 -1 26 -7 8 -6 14 1
19 6 3 7 12 3 18 -12 19 -12 37 -1 37 7 0 7 4 0 13 -6 7 -7 19 -3 26 5 7 5 28
1 47 -5 21 -4 34 2 34 7 0 7 4 0 13 -7 8 -7 18 -2 27 5 8 7 17 5 20 -2 3 35 5
81 5 46 0 84 -3 84 -6z"/>
<path d="M5928 9088 c-2 -28 1 -48 7 -48 7 0 7 -3 0 -8 -5 -4 -10 -43 -10 -87
0 -44 5 -83 10 -87 7 -5 7 -8 0 -8 -6 0 -10 -55 -10 -145 0 -90 4 -145 10
-145 7 0 7 -3 0 -8 -5 -4 -10 -43 -10 -87 0 -44 5 -83 10 -87 7 -5 7 -8 0 -8
-6 0 -10 -28 -10 -65 0 -37 4 -65 10 -65 7 0 7 -3 0 -8 -5 -4 -10 -43 -10 -87
0 -44 5 -83 10 -87 7 -5 7 -8 0 -8 -6 0 -9 -34 -8 -87 3 -89 9 -178 13 -178 2
0 4 -16 5 -35 2 -19 4 -37 5 -40 1 -3 2 -8 1 -12 0 -5 3 -8 7 -8 4 0 8 -10 9
-21 2 -27 57 -140 97 -199 51 -76 161 -179 229 -215 20 -11 37 -23 37 -27 0
-5 6 -8 14 -8 7 0 35 -10 62 -22 27 -12 53 -21 58 -20 4 2 14 -2 20 -8 7 -5
16 -7 19 -4 3 3 12 2 19 -2 7 -5 24 -9 38 -10 14 0 30 -2 35 -5 9 -5 180 -4
180 1 0 1 14 3 30 5 27 3 62 10 75 15 3 1 8 2 12 1 4 0 33 11 65 25 32 14 70
31 86 37 15 7 27 15 27 19 0 5 7 8 15 8 8 0 15 4 15 8 0 5 12 15 27 23 56 29
203 190 203 222 0 9 6 20 14 24 21 13 77 160 80 211 0 12 3 22 6 22 3 0 5 12
5 28 -1 15 2 35 7 44 5 10 4 19 -2 23 -6 4 -8 11 -4 16 10 18 12 59 1 59 -6 0
-5 5 1 13 7 8 7 18 2 27 -5 8 -6 18 -3 23 9 15 10 57 1 57 -5 0 -6 5 -2 12 9
15 9 71 0 86 -4 7 -3 12 1 12 10 0 9 58 -1 67 -3 3 -1 14 5 25 7 14 7 23 -2
34 -6 8 -8 14 -3 14 10 0 10 72 0 89 -4 6 -3 11 2 11 5 0 7 12 5 28 -2 15 -4
33 -3 40 0 6 0 27 0 45 0 60 1 82 4 110 2 15 -1 30 -6 33 -4 3 -6 10 -2 15 10
18 12 59 1 59 -6 0 -5 5 1 13 7 8 7 18 2 27 -5 8 -5 21 1 31 6 12 5 20 -1 24
-6 4 -7 11 -4 17 11 17 10 52 -1 60 -6 5 -5 8 3 8 9 0 10 5 3 19 -6 10 -8 21
-5 24 10 10 11 57 2 57 -5 0 -6 5 -2 12 9 14 10 69 2 89 -8 20 -440 21 -460 1
-9 -9 -9 -12 0 -12 8 0 9 -7 2 -25 -6 -16 -6 -26 1 -31 7 -4 7 -10 0 -18 -6
-7 -8 -16 -4 -19 9 -10 10 -57 1 -57 -4 0 -4 -11 1 -23 5 -13 6 -30 1 -37 -4
-7 -5 -22 -1 -33 4 -10 4 -41 1 -68 -4 -27 -4 -49 0 -49 8 0 5 -43 -4 -58 -4
-7 -2 -12 4 -12 7 0 8 -6 1 -19 -6 -10 -8 -20 -6 -22 10 -11 13 -59 3 -59 -7
0 -7 -4 0 -13 7 -8 7 -18 2 -27 -5 -9 -5 -19 2 -27 7 -9 7 -13 -2 -13 -9 0 -9
-4 -2 -13 7 -8 7 -18 2 -27 -5 -9 -5 -19 2 -27 7 -9 7 -13 -2 -13 -9 0 -9 -4
-2 -13 7 -8 7 -18 2 -27 -5 -9 -5 -19 2 -27 7 -9 7 -13 -2 -13 -9 0 -9 -4 -2
-13 7 -8 7 -18 2 -27 -5 -9 -5 -19 2 -27 7 -9 7 -13 -2 -13 -9 0 -9 -4 -2 -13
7 -8 7 -18 2 -27 -5 -9 -5 -19 2 -27 7 -9 7 -13 -2 -13 -9 0 -9 -4 -2 -13 7
-8 7 -18 2 -27 -5 -9 -5 -19 2 -27 7 -9 7 -13 -2 -13 -9 0 -9 -4 -2 -13 7 -8
7 -18 2 -27 -5 -9 -5 -19 2 -27 7 -9 7 -13 -2 -13 -9 0 -10 -3 -1 -13 6 -8 8
-16 6 -19 -11 -11 -13 -48 -4 -54 6 -4 6 -10 -1 -19 -8 -9 -8 -15 0 -20 6 -3
8 -11 4 -16 -3 -5 -8 -22 -10 -37 -7 -41 -45 -114 -73 -142 -38 -37 -87 -70
-95 -63 -3 3 -6 1 -6 -5 0 -7 -3 -11 -7 -11 -5 1 -10 0 -13 -1 -30 -11 -115
-15 -150 -7 -14 3 -36 8 -49 11 -13 3 -32 13 -42 22 -11 10 -19 14 -19 10 0
-10 -62 54 -88 92 -13 17 -21 32 -17 32 3 0 -1 12 -8 28 -8 15 -15 58 -16 96
-1 39 -4 73 -7 77 -2 4 -1 10 4 13 4 3 5 30 2 61 -3 31 -3 58 0 60 3 2 3 29 0
60 -3 31 -3 58 0 60 3 2 3 29 0 60 -3 31 -3 58 0 60 3 2 3 29 0 60 -3 30 -4
58 -1 61 3 2 4 24 2 47 -1 23 -3 170 -4 327 l-2 285 -227 0 -226 0 -4 -47z"/>
<path d="M14262 6660 c-12 -11 -22 -18 -22 -15 0 4 -13 -3 -30 -15 -16 -12
-35 -18 -41 -14 -8 4 -9 3 -5 -4 4 -7 3 -12 -1 -12 -5 0 -35 -15 -66 -34 -31
-19 -57 -31 -57 -28 0 4 -4 2 -8 -4 -9 -14 -84 -59 -134 -81 -21 -9 -38 -20
-38 -25 0 -5 -13 -14 -30 -19 -16 -6 -30 -15 -30 -21 0 -5 -4 -7 -9 -3 -5 3
-16 -1 -23 -9 -8 -7 -24 -16 -36 -20 -12 -4 -28 -13 -35 -19 -13 -12 -82 -51
-124 -71 -13 -6 -23 -14 -23 -18 0 -5 -7 -8 -15 -8 -8 0 -15 -5 -15 -11 0 -5
-4 -7 -10 -4 -5 3 -10 1 -10 -6 0 -7 -3 -9 -7 -6 -3 4 -13 1 -21 -5 -8 -7 -22
-17 -33 -23 -10 -5 -60 -34 -110 -62 -51 -29 -96 -53 -101 -53 -4 0 -8 -4 -8
-10 0 -5 -7 -10 -15 -10 -8 0 -15 -5 -15 -11 0 -5 -4 -8 -9 -5 -5 3 -14 -1
-21 -9 -7 -8 -16 -12 -21 -9 -5 3 -9 0 -9 -5 0 -6 -5 -11 -11 -11 -7 0 -18 -8
-26 -17 -8 -10 -12 -12 -8 -5 6 11 -51 -22 -81 -47 -7 -6 -15 -7 -18 -4 -3 4
-6 0 -6 -7 0 -7 -3 -10 -7 -7 -3 4 -13 1 -21 -5 -17 -15 -43 -30 -99 -59 -24
-11 -43 -25 -43 -30 0 -5 -9 -9 -20 -9 -11 0 -20 -3 -20 -7 0 -5 -10 -13 -23
-19 -61 -31 -92 -48 -97 -53 -3 -3 -18 -13 -35 -21 -16 -8 -32 -18 -35 -21 -3
-3 -18 -12 -35 -20 -40 -20 -79 -43 -85 -50 -3 -3 -22 -13 -42 -22 -21 -10
-38 -22 -38 -27 0 -6 -3 -10 -7 -9 -15 2 -53 -13 -53 -21 0 -4 -11 -11 -25
-14 -14 -4 -25 -11 -25 -17 0 -6 -5 -7 -10 -4 -6 3 -13 -1 -16 -9 -3 -9 -10
-14 -14 -11 -5 3 -15 -1 -22 -9 -8 -7 -24 -17 -36 -20 -12 -4 -22 -12 -22 -17
0 -5 -9 -9 -20 -9 -11 0 -20 -4 -20 -10 0 -5 -11 -12 -25 -16 -14 -3 -25 -9
-25 -13 0 -3 -23 -17 -50 -30 -28 -14 -50 -29 -50 -34 0 -4 -4 -5 -10 -2 -5 3
-10 1 -10 -5 0 -6 -4 -9 -9 -6 -5 3 -11 0 -14 -8 -3 -8 -19 -17 -36 -21 -17
-4 -31 -10 -31 -14 0 -9 -51 -35 -62 -33 -5 1 -8 -2 -8 -8 0 -5 -6 -10 -13
-10 -7 0 -22 -8 -33 -17 -11 -10 -26 -19 -34 -21 -8 -2 -16 -8 -18 -13 -2 -5
-8 -9 -13 -9 -11 0 -135 -72 -156 -90 -7 -6 -13 -8 -13 -6 0 3 -26 -11 -57
-31 -32 -20 -63 -36 -70 -36 -7 0 -13 -3 -13 -7 0 -3 -16 -14 -35 -23 -19 -9
-35 -22 -35 -29 0 -6 -3 -8 -6 -5 -7 6 -85 -35 -116 -60 -9 -8 -22 -16 -30
-17 -7 -1 -37 -18 -67 -37 -30 -19 -56 -32 -59 -31 -3 2 -8 0 -11 -5 -9 -13
-105 -68 -114 -65 -4 1 -10 -5 -13 -13 -3 -8 -10 -12 -15 -9 -5 3 -9 0 -9 -7
0 -7 -3 -9 -6 -6 -4 4 -21 -4 -38 -16 -17 -12 -35 -22 -39 -22 -4 0 -12 -7
-17 -15 -5 -8 -10 -11 -10 -7 0 5 -13 -1 -30 -13 -16 -12 -30 -18 -30 -13 0 4
-4 3 -8 -3 -7 -11 -72 -52 -122 -76 -14 -7 -28 -17 -32 -23 -4 -5 -8 -6 -8 -1
0 4 -15 -3 -34 -18 -19 -14 -37 -26 -40 -26 -5 0 -114 -62 -156 -88 -14 -9
-29 -15 -33 -14 -4 1 -10 -5 -13 -13 -3 -8 -10 -12 -15 -10 -4 3 -17 -3 -29
-15 -11 -11 -20 -18 -20 -15 0 3 -18 -6 -40 -20 -22 -14 -44 -25 -50 -25 -5 0
-10 -4 -10 -10 0 -5 -9 -10 -20 -10 -11 0 -20 -3 -20 -8 0 -4 -17 -16 -37 -27
-21 -10 -50 -27 -64 -37 -14 -9 -29 -15 -33 -11 -3 3 -6 1 -6 -4 0 -6 -19 -21
-42 -33 -47 -23 -80 -42 -88 -50 -3 -3 -27 -16 -54 -29 -27 -13 -57 -32 -67
-42 -11 -11 -19 -14 -19 -7 0 7 -7 5 -17 -5 -10 -8 -22 -17 -28 -18 -10 -2
-23 -9 -80 -44 -16 -10 -31 -17 -32 -14 -1 2 -9 -5 -17 -16 -9 -11 -16 -16
-16 -12 0 5 -13 -1 -29 -12 -16 -12 -34 -21 -40 -21 -6 0 -11 -4 -11 -8 0 -4
-12 -13 -27 -20 -32 -14 -105 -54 -113 -62 -3 -3 -18 -12 -35 -20 -16 -8 -36
-22 -43 -30 -12 -13 -13 -13 -7 0 5 11 2 10 -7 -2 -8 -9 -26 -20 -41 -23 -15
-4 -27 -10 -27 -15 0 -4 -18 -15 -40 -25 -22 -10 -40 -22 -40 -27 0 -4 -5 -8
-11 -8 -7 0 -27 -10 -46 -22 l-35 -21 23 -13 c13 -7 27 -10 31 -8 3 2 19 -1
35 -7 29 -11 69 -21 91 -22 6 0 12 -3 12 -7 0 -3 8 -7 18 -8 21 -2 57 -10 57
-12 0 -2 13 -5 55 -13 14 -3 38 -10 54 -16 16 -7 31 -10 33 -7 2 2 16 -2 30
-9 14 -7 32 -11 39 -8 8 3 14 -1 14 -8 0 -7 3 -10 6 -7 3 4 20 2 37 -3 18 -6
40 -12 50 -14 10 -2 27 -7 37 -10 10 -3 27 -7 37 -10 11 -2 42 -10 70 -18 28
-9 54 -13 57 -10 3 4 6 2 6 -3 0 -5 8 -11 18 -12 21 -2 57 -10 57 -12 0 -2 22
-7 50 -13 8 -2 17 -6 21 -9 3 -4 12 -4 19 -2 7 3 16 0 20 -5 3 -6 11 -9 16 -5
5 3 16 0 24 -6 8 -6 19 -9 25 -5 5 3 10 1 10 -6 0 -7 3 -10 6 -6 3 3 26 0 50
-8 24 -7 44 -11 44 -8 0 3 6 1 13 -5 6 -5 26 -12 42 -15 17 -3 45 -10 63 -16
18 -5 36 -11 40 -12 4 -1 12 -3 17 -4 9 -3 52 -14 85 -22 8 -2 23 -4 33 -5 9
-1 17 -5 17 -8 0 -3 12 -7 26 -8 14 -1 46 -9 70 -17 23 -8 54 -17 69 -20 14
-3 37 -7 52 -10 14 -3 36 -11 47 -17 12 -6 22 -11 24 -10 1 1 3 2 5 1 1 0 9
-2 17 -4 8 -1 51 -13 95 -24 44 -12 94 -24 110 -27 17 -3 38 -10 48 -15 9 -5
17 -7 17 -4 0 3 8 1 19 -4 10 -6 33 -13 52 -17 45 -8 63 -12 67 -14 1 -2 7 -4
12 -5 6 -1 11 -3 13 -4 1 -2 13 -4 27 -7 14 -2 36 -9 50 -14 14 -5 36 -12 50
-14 14 -3 25 -5 25 -6 0 -1 8 -3 18 -6 9 -2 23 -6 30 -7 6 -2 30 -7 52 -12 22
-4 45 -11 51 -16 6 -5 25 -10 43 -11 18 -1 35 -6 37 -10 3 -4 18 -8 34 -8 16
0 31 -4 35 -9 3 -6 13 -10 23 -10 36 -1 52 -5 52 -11 0 -4 6 -7 13 -7 16 -1
48 -8 122 -29 33 -9 67 -17 75 -19 8 -2 27 -8 43 -14 15 -6 27 -9 27 -6 0 2
18 -2 40 -10 22 -8 40 -12 40 -8 0 3 6 0 14 -6 8 -6 18 -11 22 -10 5 1 12 0
17 -1 4 -1 12 -4 17 -5 6 -1 11 -3 13 -5 2 -1 7 -3 57 -13 14 -3 39 -10 57
-16 17 -5 34 -7 37 -3 3 3 6 1 6 -5 0 -6 15 -13 33 -16 17 -3 46 -8 64 -12 30
-6 37 -1 90 53 110 113 238 252 318 347 28 32 58 67 68 77 9 10 15 18 12 18
-3 0 3 8 13 18 17 18 73 86 102 124 8 11 22 28 32 38 9 10 14 21 11 24 -3 3 2
8 11 12 9 3 16 10 16 16 0 5 6 15 13 23 42 44 96 122 90 129 -4 3 -1 6 4 6 6
0 24 20 40 45 15 25 31 45 36 45 4 0 7 7 7 15 0 8 5 15 10 15 6 0 10 6 10 13
0 7 9 23 20 35 11 12 20 26 20 32 0 5 5 10 10 10 6 0 10 4 10 10 0 5 26 49 57
97 32 48 56 91 55 96 -1 4 2 7 8 7 5 0 10 7 10 15 0 8 4 15 8 15 5 0 14 16 22
35 8 19 17 35 20 35 4 0 15 18 25 40 10 22 22 40 27 40 4 0 8 3 7 8 -2 14 13
52 21 52 4 0 11 11 14 25 4 14 11 25 16 25 6 0 10 7 10 15 0 9 10 32 23 53 12
20 31 56 42 79 11 24 24 43 28 43 5 0 5 5 2 10 -3 6 -1 10 5 10 6 0 9 4 6 8
-3 5 4 23 14 40 11 18 32 60 46 95 14 34 31 65 36 68 5 3 9 10 9 15 -1 5 8 32
20 59 12 28 21 52 21 55 0 3 6 12 13 20 7 8 14 18 14 23 2 19 10 39 42 114 11
23 19 49 19 57 0 9 5 16 10 16 6 0 10 6 10 14 0 8 5 27 12 43 6 15 12 33 14
38 1 6 9 27 18 48 9 20 13 37 10 37 -4 0 -2 6 3 13 12 14 48 119 45 130 -1 4
2 7 8 7 5 0 7 7 4 15 -4 8 -2 15 3 15 5 0 10 6 11 13 1 18 9 49 20 78 6 15 8
30 5 33 -4 3 -1 6 6 6 7 0 9 5 6 10 -3 6 -3 16 2 23 4 6 9 18 10 25 7 29 12
47 13 50 2 1 4 7 5 12 1 6 3 11 5 13 2 3 10 37 13 62 2 12 6 25 9 30 7 13 22
78 20 88 -1 4 2 7 6 7 4 0 8 8 8 18 1 22 11 67 23 110 5 17 8 32 5 32 -3 0 0
8 5 18 5 9 12 35 16 57 17 103 23 130 25 130 1 0 4 11 6 25 4 31 12 75 14 75
1 0 3 16 5 35 7 55 13 95 15 95 1 0 3 14 4 30 1 17 4 35 7 40 4 6 5 20 4 33
-1 12 1 22 4 22 3 0 7 15 8 33 1 17 3 48 5 67 4 42 -17 51 -50 20z"/>
<path d="M5099 6505 c-1 0 -2 -134 -3 -298 0 -189 3 -301 9 -306 6 -4 37 -7
70 -7 l60 1 0 49 c1 41 4 50 20 52 57 7 135 39 135 56 0 5 7 8 16 8 8 0 12 5
9 10 -3 6 -2 10 3 10 11 0 40 41 44 62 2 7 7 16 11 19 11 8 18 141 8 154 -5 5
-11 23 -15 39 -7 30 -102 130 -116 121 -5 -3 -10 0 -12 5 -2 6 -13 12 -26 13
-12 0 -22 4 -22 7 0 3 -173 8 -191 5z m225 -188 c23 -31 28 -84 10 -119 -17
-32 -59 -63 -74 -53 -5 3 -10 1 -10 -5 0 -6 -3 -9 -7 -7 -6 4 -9 194 -4 229 2
14 66 -20 85 -45z"/>
<path d="M5554 6495 c-2 -5 -3 -31 -1 -57 1 -28 -2 -48 -8 -48 -6 0 -7 -3 0
-8 6 -4 10 -20 10 -37 0 -16 -4 -33 -10 -37 -7 -5 -7 -8 0 -8 9 0 10 -36 5
-175 -1 -27 -1 -54 0 -60 1 -5 2 -45 2 -87 -1 -43 2 -79 6 -79 4 -1 35 -2 70
-3 56 -1 62 0 63 19 1 11 2 63 3 115 l1 95 85 0 85 -1 2 -94 c1 -52 2 -104 2
-116 1 -19 6 -20 64 -18 34 1 66 2 70 3 5 1 7 53 5 116 -2 63 0 115 4 115 4 0
3 11 -2 25 -5 14 -6 25 -2 25 4 0 7 43 7 95 0 57 -4 95 -10 95 -5 0 -3 5 5 10
8 5 10 10 4 10 -8 0 -9 11 -4 35 5 21 4 38 -2 41 -6 4 -5 10 3 15 27 17 -79
32 -141 20 -3 -1 -5 -54 -5 -118 l0 -118 -85 0 -85 0 -2 105 c0 58 -2 112 -2
121 -1 12 -14 15 -67 15 -37 -1 -68 -5 -70 -11z"/>
<path d="M6280 6498 c-136 -35 -234 -158 -233 -293 1 -55 9 -100 27 -137 20
-42 87 -118 104 -118 7 0 12 -4 12 -8 0 -7 52 -30 90 -40 59 -14 195 4 211 29
3 6 9 9 12 7 9 -5 97 76 97 89 0 7 5 13 11 13 5 0 7 5 4 10 -3 6 -2 10 3 10
30 0 47 185 21 239 -6 14 -16 36 -22 48 -12 26 -80 103 -91 103 -4 0 -20 8
-34 19 -43 29 -152 45 -212 29z m112 -137 c9 -1 24 -8 32 -17 9 -8 16 -12 16
-8 0 11 44 -39 59 -68 7 -14 10 -31 7 -37 -4 -6 -3 -11 1 -11 16 0 1 -74 -20
-105 -28 -40 -43 -55 -56 -55 -6 0 -11 -4 -11 -8 0 -5 -6 -9 -12 -10 -7 0 -30
-3 -51 -5 -20 -3 -40 -1 -43 5 -3 5 -12 7 -18 5 -15 -6 -86 54 -86 71 0 7 -4
12 -8 12 -5 0 -9 6 -9 13 -1 6 -3 29 -6 49 -3 21 -1 41 4 44 6 3 8 12 5 20 -3
7 3 18 12 23 9 6 13 11 8 11 -15 0 36 50 51 50 7 0 13 4 13 9 0 6 9 8 20 6 11
-2 20 0 20 4 0 4 12 7 28 5 15 -1 35 -2 44 -3z"/>
<path d="M6678 6499 c-6 -4 -8 -11 -4 -17 3 -6 0 -13 -6 -15 -7 -3 -8 -6 -3
-6 6 -1 9 -20 7 -46 -4 -49 -7 -47 68 -49 l45 -1 1 -226 c1 -124 4 -230 7
-236 3 -5 34 -9 69 -8 l63 1 5 234 5 235 56 -1 56 -1 0 64 c0 36 -4 67 -11 71
-14 9 -344 10 -358 1z"/>
<path d="M7337 6504 c-1 -1 -16 -5 -32 -8 -17 -2 -30 -5 -30 -6 0 -1 -8 -3
-18 -5 -10 -2 -27 -11 -36 -19 -10 -9 -21 -16 -25 -16 -11 0 -76 -68 -76 -80
0 -5 -5 -10 -11 -10 -5 0 -7 -4 -4 -10 3 -5 2 -10 -3 -10 -25 0 -49 -179 -28
-207 4 -7 5 -13 1 -13 -4 0 -1 -7 6 -17 8 -9 13 -19 13 -22 -2 -12 30 -71 38
-71 5 0 6 -4 3 -10 -3 -5 1 -10 9 -10 8 0 24 -12 35 -26 12 -15 21 -23 21 -18
0 5 4 4 8 -1 17 -23 92 -47 152 -49 63 -3 200 41 183 57 -3 4 -1 7 5 7 25 0
102 94 102 124 0 9 4 16 10 16 5 0 7 6 4 14 -3 8 -1 17 4 20 11 7 6 134 -8
164 -28 63 -37 76 -70 112 -44 48 -138 91 -203 94 -26 2 -48 1 -50 0z m91
-154 c2 -6 8 -8 13 -5 17 11 86 -73 81 -97 -1 -5 1 -8 6 -8 7 0 7 -47 -1 -80
-7 -34 -40 -82 -62 -92 -14 -6 -25 -14 -25 -18 0 -7 -6 -9 -60 -13 -19 -2 -39
-1 -45 2 -10 5 -15 7 -33 10 -15 2 -67 55 -80 82 -16 31 -23 109 -9 109 5 0 7
6 4 13 -6 16 53 87 71 87 7 0 12 5 12 11 0 5 4 8 8 5 4 -2 14 -1 21 3 17 11
95 3 99 -9z"/>
<path d="M8174 6490 c-62 -23 -154 -90 -154 -112 0 -5 -7 -16 -15 -25 -8 -8
-13 -19 -10 -24 4 -5 1 -9 -5 -9 -6 0 -8 -4 -5 -10 3 -5 2 -10 -2 -10 -10 0
-13 -21 -14 -100 0 -60 2 -78 14 -97 5 -7 5 -13 2 -13 -4 0 4 -17 16 -37 25
-41 81 -103 93 -103 4 0 14 -7 23 -15 8 -8 19 -13 24 -10 5 4 9 1 9 -5 0 -6 5
-8 10 -5 6 3 10 2 10 -2 0 -8 28 -13 113 -17 20 -2 37 2 37 6 0 5 4 7 9 4 12
-8 85 19 110 41 12 10 24 16 28 15 3 -2 9 2 13 9 5 8 -10 29 -41 60 -45 44
-52 47 -74 37 -14 -6 -25 -15 -25 -19 0 -4 -9 -6 -20 -4 -11 2 -20 0 -20 -4 0
-11 -56 -6 -91 8 -31 11 -68 46 -87 80 -20 34 -17 117 5 149 9 15 16 30 15 35
-1 4 5 7 13 7 8 0 15 4 15 9 0 22 115 45 138 28 6 -5 12 -6 12 -2 0 3 16 -3
35 -15 l36 -22 48 49 48 49 -26 22 c-74 62 -201 85 -287 52z"/>
<path d="M8534 6501 c-5 -3 -9 -139 -9 -301 0 -233 3 -296 13 -300 7 -3 88 -5
180 -5 l167 0 6 38 c3 21 3 40 -1 42 -4 2 -5 17 -3 32 l5 29 -104 -1 c-57 -1
-107 0 -113 2 -6 2 -10 88 -9 233 0 127 -2 230 -5 231 -28 5 -121 5 -127 0z"/>
<path d="M8959 6501 c-12 -5 -14 -41 -12 -211 1 -113 3 -212 6 -220 15 -55 46
-96 109 -146 60 -47 213 -28 273 34 65 68 73 94 74 262 1 79 4 147 7 151 2 4
0 11 -6 14 -8 5 -8 11 0 20 8 10 8 15 0 20 -8 5 -8 10 0 20 8 10 8 15 0 20 -8
5 -8 11 1 21 13 16 16 15 -73 18 -67 2 -68 2 -69 -23 0 -14 -1 -107 -2 -206
-2 -170 -3 -182 -24 -209 -12 -15 -27 -25 -32 -22 -5 4 -12 2 -16 -3 -10 -18
-69 3 -95 33 -9 12 -13 71 -14 223 l-1 207 -56 1 c-30 1 -62 -1 -70 -4z"/>
<path d="M9502 6496 c-4 -6 -8 -144 -7 -306 l0 -294 118 -1 c65 -1 121 3 123
7 3 4 14 8 24 8 10 0 25 7 33 15 8 8 17 12 20 9 10 -10 78 81 87 118 19 67 1
136 -46 183 -21 21 -25 31 -17 48 18 43 -2 147 -29 147 -5 0 -7 4 -4 8 5 9
-65 53 -94 60 -42 9 -201 8 -208 -2z m193 -146 c15 -12 9 -44 -6 -34 -5 3 -9
1 -9 -4 0 -6 -8 -9 -17 -8 -18 1 -33 32 -26 53 5 13 39 9 58 -7z m15 -190 c3
-1 8 -2 13 -1 4 0 7 -4 7 -10 0 -5 4 -8 9 -5 5 3 14 -8 21 -24 10 -24 10 -33
-1 -46 -25 -31 -65 -43 -118 -35 -10 1 -9 20 2 39 5 6 4 12 -1 12 -7 0 -9 40
-3 71 1 5 58 4 71 -1z"/>
<path d="M3539 6119 c0 -2 -3 -15 -6 -29 -2 -14 -5 -29 -7 -35 -1 -5 -5 -16
-9 -22 -5 -7 -5 -17 -2 -23 3 -5 2 -10 -2 -10 -8 0 -12 -15 -15 -57 -1 -7 -6
-13 -11 -13 -6 0 -8 -3 -5 -6 5 -4 0 -29 -28 -129 -4 -11 -7 -28 -7 -37 -1
-10 -4 -18 -7 -18 -3 0 -7 -8 -8 -17 -2 -21 -10 -57 -12 -60 -2 -2 -3 -6 -4
-10 -1 -5 -5 -17 -9 -28 -3 -11 -8 -31 -11 -45 -9 -45 -14 -65 -24 -91 -6 -15
-8 -30 -5 -33 4 -3 2 -6 -3 -6 -5 0 -10 -11 -10 -25 -1 -14 -5 -33 -9 -43 -9
-19 -10 -25 -18 -62 -3 -14 -10 -40 -16 -58 -5 -18 -10 -35 -10 -37 -1 -3 -2
-7 -2 -10 -1 -3 -3 -9 -4 -15 -1 -5 -3 -11 -5 -12 -2 -4 -10 -40 -12 -60 -1
-10 -6 -18 -10 -18 -4 0 -5 -6 -2 -14 3 -8 0 -17 -5 -21 -6 -3 -9 -11 -6 -16
4 -5 3 -15 -2 -21 -8 -13 -8 -15 -17 -58 -3 -14 -12 -47 -20 -74 -8 -27 -13
-53 -10 -58 3 -4 1 -8 -4 -8 -5 0 -9 -6 -10 -12 -1 -20 -13 -71 -17 -78 -2 -4
-7 -22 -10 -40 -3 -19 -10 -39 -15 -46 -6 -6 -7 -14 -4 -17 3 -3 2 -12 -2 -19
-5 -7 -9 -17 -10 -23 -1 -5 -10 -39 -19 -75 -9 -36 -19 -74 -21 -84 -2 -10 -8
-33 -14 -51 -12 -37 -21 -74 -22 -92 -1 -7 -5 -13 -9 -13 -4 0 -6 -8 -5 -17 2
-10 -3 -33 -11 -50 -7 -18 -10 -33 -7 -33 4 0 1 -7 -6 -15 -7 -8 -10 -15 -7
-15 3 0 1 -15 -4 -32 -17 -56 -21 -72 -22 -90 -1 -10 -5 -18 -9 -18 -4 0 -5
-7 -2 -15 4 -8 1 -15 -7 -15 -7 0 -10 -3 -6 -6 3 -3 0 -26 -8 -50 -7 -24 -11
-44 -8 -44 3 0 0 -7 -7 -15 -7 -8 -10 -15 -7 -15 4 0 0 -19 -9 -42 -8 -22 -12
-43 -9 -46 3 -3 -2 -16 -11 -30 -8 -13 -13 -26 -10 -29 3 -3 -1 -20 -8 -37 -7
-17 -12 -39 -10 -49 1 -9 -1 -17 -5 -17 -4 0 -8 -6 -9 -12 -1 -26 -13 -72 -22
-88 -5 -10 -7 -20 -4 -23 3 -3 2 -12 -2 -19 -5 -7 -9 -17 -11 -23 -1 -5 -5
-21 -8 -35 -3 -14 -8 -32 -10 -40 -2 -8 -4 -15 -5 -15 -2 0 -4 -12 -13 -55 -5
-25 -11 -45 -24 -77 -3 -10 -7 -26 -8 -35 -2 -10 -3 -19 -5 -20 -2 -4 -10 -40
-12 -60 -1 -10 -5 -18 -8 -18 -3 0 -7 -8 -8 -17 -2 -22 -10 -58 -12 -58 -1 0
-3 -7 -5 -15 -2 -8 -9 -33 -15 -55 -6 -22 -13 -51 -16 -65 -9 -38 -10 -44 -17
-60 -4 -8 -9 -26 -11 -40 -3 -14 -5 -26 -7 -27 -1 -2 -3 -7 -4 -13 -1 -5 -4
-11 -5 -12 -1 -2 -3 -16 -5 -32 -2 -25 11 -42 89 -118 50 -48 94 -88 99 -88 4
0 5 -4 2 -10 -3 -6 -1 -10 6 -10 6 0 29 -18 50 -40 22 -22 41 -40 44 -40 2 0
21 -17 42 -37 22 -21 59 -54 83 -73 24 -19 63 -52 85 -72 22 -21 44 -38 48
-38 4 0 19 -11 33 -25 13 -13 68 -57 122 -96 53 -40 109 -83 125 -97 15 -14
27 -22 27 -18 0 4 12 -5 27 -19 15 -14 31 -25 35 -25 4 0 19 -11 34 -25 14
-13 30 -23 33 -20 4 2 14 -5 21 -16 8 -10 20 -19 27 -19 7 0 13 -4 13 -10 0
-5 7 -10 15 -10 8 0 15 -4 15 -10 0 -5 5 -10 11 -10 6 0 31 -14 57 -32 26 -18
48 -31 50 -30 2 2 16 -8 47 -35 7 -7 21 -13 29 -13 9 0 16 -4 16 -9 0 -5 12
-16 28 -23 36 -19 76 -42 82 -48 3 -3 19 -12 35 -20 17 -8 32 -17 35 -20 7 -7
95 -55 170 -92 36 -18 67 -36 70 -39 6 -6 218 -110 268 -130 17 -8 32 -17 32
-21 0 -5 7 -8 15 -8 8 0 23 -4 33 -10 25 -15 76 -33 85 -32 4 1 7 -3 7 -9 0
-5 4 -7 10 -4 6 3 10 1 10 -6 0 -7 3 -9 6 -6 4 4 23 -2 43 -12 49 -25 140 -61
157 -61 8 0 14 -4 14 -10 0 -5 3 -9 8 -9 4 1 10 0 15 -1 4 -1 10 -3 15 -5 4
-1 16 -5 27 -9 21 -8 106 -40 140 -52 11 -4 25 -8 30 -10 6 -1 63 -21 128 -43
64 -22 117 -37 117 -34 0 3 7 0 15 -7 8 -7 15 -9 15 -5 0 4 7 2 15 -5 8 -7 15
-10 15 -6 0 3 15 0 34 -8 18 -7 52 -17 75 -21 22 -4 41 -11 41 -16 0 -4 7 -6
15 -3 8 3 20 2 27 -2 13 -9 27 -12 63 -18 11 -2 21 -5 23 -6 2 -3 1 -3 77 -20
33 -7 65 -15 70 -16 6 -2 24 -5 40 -9 17 -3 41 -8 55 -11 14 -3 39 -8 55 -11
41 -7 60 -11 60 -13 0 -2 36 -9 75 -14 19 -3 46 -8 60 -11 14 -4 41 -8 60 -9
19 -2 35 -4 35 -6 0 -3 37 -9 85 -14 25 -3 68 -8 95 -12 88 -11 89 -10 60 36
-14 22 -25 44 -25 50 0 5 -5 10 -11 10 -5 0 -8 4 -5 9 3 5 -1 14 -9 21 -8 7
-15 19 -15 26 0 8 -4 14 -10 14 -5 0 -10 9 -10 20 0 11 -4 20 -10 20 -5 0 -10
7 -10 15 0 8 -3 15 -7 15 -5 0 -13 10 -18 23 -15 31 -59 111 -65 117 -4 4 -18
29 -64 115 -6 11 -14 22 -17 25 -4 3 -19 29 -34 58 -15 29 -31 55 -36 58 -5 3
-7 10 -4 15 4 5 1 9 -4 9 -6 0 -11 6 -11 14 0 8 -3 16 -7 18 -8 3 -22 26 -74
125 -19 35 -37 63 -42 63 -4 0 -5 4 -2 10 3 5 2 10 -3 10 -4 0 -14 16 -22 35
-8 19 -16 35 -19 35 -3 0 -22 30 -41 68 -19 37 -38 69 -42 70 -5 2 -8 10 -8
18 0 8 -5 14 -11 14 -5 0 -8 4 -5 9 3 5 -1 14 -9 21 -8 7 -15 19 -15 26 0 8
-4 14 -8 14 -5 0 -14 16 -22 35 -8 19 -17 35 -21 35 -4 0 -9 8 -12 18 -8 23
-40 75 -52 84 -5 4 -6 8 -1 8 5 0 1 9 -9 20 -10 11 -15 20 -11 20 4 0 0 7 -8
16 -9 8 -16 22 -16 30 0 8 -3 14 -7 14 -5 0 -13 10 -19 23 -34 67 -46 87 -55
87 -6 0 -8 4 -4 9 3 5 -2 17 -11 25 -8 9 -13 16 -9 16 3 0 -3 13 -14 29 -12
16 -21 34 -21 40 0 6 -4 11 -10 11 -5 0 -10 4 -10 10 0 5 -22 47 -50 93 -27
46 -50 89 -50 95 0 7 -3 12 -7 12 -5 0 -13 10 -19 23 -27 55 -60 113 -70 124
-6 6 -17 25 -24 42 -7 17 -17 31 -22 31 -5 0 -7 4 -4 8 3 5 -2 18 -12 28 -9
11 -18 26 -20 34 -2 8 -8 17 -13 18 -5 2 -9 8 -9 13 0 5 -14 32 -31 61 -17 29
-48 80 -67 113 -20 33 -40 63 -46 67 -7 5 -5 8 4 8 9 0 11 3 5 8 -18 12 -130
198 -142 235 -3 9 -9 17 -14 17 -5 0 -9 7 -9 15 0 8 -5 15 -12 15 -6 0 -8 3
-5 7 4 3 2 12 -4 20 -16 19 -48 75 -55 96 -4 9 -11 17 -16 17 -5 0 -7 4 -4 9
3 5 -1 14 -9 21 -8 7 -15 19 -15 26 0 8 -4 14 -10 14 -5 0 -10 9 -10 20 0 10
-8 24 -17 29 -10 6 -13 11 -8 11 7 0 7 3 0 8 -5 4 -21 28 -35 55 -13 26 -29
47 -34 47 -5 0 -7 3 -3 6 3 3 -9 29 -26 57 -53 86 -67 111 -73 130 -4 9 -11
17 -16 17 -5 0 -7 4 -4 9 3 5 -1 14 -9 21 -8 7 -15 18 -15 24 0 7 -9 22 -20
34 -12 12 -18 22 -15 22 3 0 -6 18 -20 40 -14 22 -25 44 -25 50 0 5 -3 10 -8
10 -4 0 -15 17 -25 38 -20 41 -49 94 -57 102 -3 3 -12 14 -20 24 -13 18 -13
19 0 11 8 -4 5 3 -7 17 -13 13 -23 27 -23 31 0 4 -18 37 -41 73 -22 37 -45 78
-50 91 -4 12 -13 23 -19 23 -5 0 -9 3 -8 8 3 11 -75 162 -84 162 -4 0 -8 9 -8
20 0 11 -4 20 -8 20 -5 0 -26 34 -48 75 -21 42 -45 84 -54 93 -8 10 -16 24
-18 32 -2 8 -9 18 -15 22 -7 4 -7 8 -2 8 7 0 7 3 0 8 -10 7 -23 28 -67 111
-12 23 -25 41 -30 41 -4 0 -8 7 -8 15 0 8 -15 38 -34 67 -18 29 -41 70 -51 91
-9 20 -22 37 -27 37 -5 0 -7 4 -3 9 3 5 1 12 -4 15 -8 5 -22 28 -92 154 -10
17 -16 32 -14 32 3 0 -4 9 -15 20 -11 11 -20 27 -20 35 0 8 -5 15 -11 15 -5 0
-7 5 -4 10 3 6 2 10 -2 10 -5 0 -19 23 -32 50 -13 28 -27 50 -32 50 -4 0 -10
14 -14 30 -4 17 -10 28 -14 26 -4 -3 -13 11 -20 30 -7 18 -16 34 -20 34 -4 0
-13 15 -19 34 -11 29 -40 67 -43 55z"/>
<path d="M5676 3725 c-3 -8 -2 -15 2 -17 10 -4 72 -106 72 -117 0 -5 3 -11 8
-13 8 -3 25 -33 67 -115 15 -29 31 -53 35 -53 4 0 11 -12 15 -27 3 -15 10 -30
14 -33 8 -5 28 -39 94 -160 17 -30 33 -57 36 -60 6 -5 37 -60 70 -125 9 -16
21 -33 26 -37 6 -4 10 -11 10 -15 0 -4 11 -26 24 -48 14 -22 24 -43 23 -47 -1
-5 3 -8 8 -8 6 0 10 -7 10 -15 0 -8 5 -15 10 -15 6 0 10 -9 10 -20 0 -11 5
-20 10 -20 6 0 10 -4 10 -10 0 -5 16 -34 35 -64 19 -29 31 -56 28 -60 -4 -3
-1 -6 5 -6 7 0 12 -5 12 -10 0 -12 52 -94 63 -98 4 -2 5 -7 2 -11 -2 -5 7 -23
20 -41 13 -18 22 -37 19 -41 -3 -5 -1 -9 4 -9 5 0 20 -21 33 -47 13 -27 27
-50 31 -53 4 -3 14 -22 23 -43 8 -20 20 -37 26 -37 5 0 7 -4 4 -10 -3 -5 -2
-10 2 -10 5 0 14 -12 20 -27 15 -37 45 -86 58 -95 6 -4 6 -8 2 -8 -5 0 1 -13
12 -29 12 -16 21 -34 21 -40 0 -6 5 -11 10 -11 6 0 10 -4 10 -10 0 -5 14 -33
31 -62 30 -49 46 -78 81 -139 7 -13 17 -27 21 -30 5 -3 9 -10 8 -15 0 -5 8
-22 18 -39 9 -16 18 -34 18 -39 1 -5 8 -13 17 -18 9 -5 14 -13 12 -17 -3 -4 4
-17 14 -29 11 -12 20 -26 20 -32 0 -12 50 -91 63 -101 5 -3 7 -8 5 -11 -1 -3
16 -37 40 -76 23 -39 42 -76 42 -82 0 -5 5 -10 11 -10 5 0 7 -4 4 -10 -3 -5
-1 -10 4 -10 6 0 11 -6 11 -14 0 -8 4 -16 9 -18 5 -1 11 -10 13 -18 2 -8 6
-17 9 -20 3 -3 23 -36 44 -75 21 -38 42 -72 47 -73 4 -2 6 -8 2 -13 -3 -5 -1
-9 4 -9 4 0 14 -16 22 -35 8 -19 17 -35 22 -35 4 0 8 -7 8 -15 0 -8 5 -15 11
-15 5 0 8 -4 4 -9 -3 -5 1 -15 8 -23 12 -12 38 -56 100 -170 12 -21 25 -38 29
-38 5 0 7 -4 4 -9 -4 -5 5 -22 18 -38 l24 -29 124 1 c68 1 129 4 136 9 6 4 12
3 12 -3 0 -5 10 -8 23 -5 12 3 60 7 107 9 99 5 208 13 385 30 107 11 130 13
130 16 0 1 14 3 30 4 17 2 30 4 30 5 0 1 16 3 35 5 37 4 78 10 145 21 22 3 47
10 56 15 10 5 20 4 27 -3 9 -9 12 -9 12 2 0 7 2 11 6 8 3 -3 22 -2 42 3 33 8
67 15 127 24 11 2 37 8 58 13 20 6 37 8 37 5 0 -3 7 1 17 8 9 8 19 13 22 11 5
-3 43 3 81 13 3 0 30 7 60 14 30 7 62 15 70 18 8 4 18 6 22 5 4 -1 25 5 46 12
22 8 43 12 46 9 3 -4 6 -1 6 5 0 6 9 9 20 7 11 -2 20 0 20 5 0 5 7 7 15 4 8
-4 15 -2 15 3 0 5 9 9 19 10 11 1 41 9 68 18 26 9 55 18 63 20 8 2 29 9 45 15
17 7 41 14 55 17 13 2 30 9 37 15 7 6 13 7 13 3 0 -4 7 -2 15 5 8 7 15 9 15 5
0 -4 6 -3 13 3 7 6 24 13 37 16 14 3 63 20 110 39 47 18 87 34 90 35 14 3 88
34 110 46 14 8 27 14 30 14 4 0 26 9 110 44 14 6 28 11 33 10 4 -1 7 3 7 8 0
5 3 9 8 8 4 -1 21 5 37 12 17 7 33 13 38 12 4 -1 7 3 7 8 0 6 5 10 11 10 6 0
47 18 91 40 44 22 87 40 95 40 8 0 11 5 8 10 -3 5 0 10 7 10 7 0 27 7 43 16
94 49 166 88 210 113 28 16 73 41 100 56 28 15 52 30 55 34 3 4 16 12 30 19
30 14 50 27 113 69 26 18 51 33 57 33 5 0 14 8 19 18 6 9 11 13 11 9 0 -4 15
3 33 17 19 14 37 23 40 19 4 -3 7 -2 7 4 0 5 24 25 53 43 28 19 57 39 64 45
34 29 43 35 48 35 5 0 114 78 125 90 3 3 36 28 73 55 64 46 66 50 45 59 -13 5
-34 11 -47 13 -14 2 -32 8 -42 14 -10 5 -29 9 -43 9 -14 0 -26 5 -26 12 0 6
-3 9 -6 6 -3 -4 -52 6 -110 22 -57 15 -104 25 -104 23 0 -3 -6 -1 -12 5 -11 8
-38 16 -93 28 -5 1 -37 9 -70 19 -97 27 -139 37 -152 38 -7 0 -13 4 -13 8 0 4
-8 6 -17 4 -10 -1 -25 1 -34 6 -9 4 -27 10 -40 12 -13 3 -44 11 -69 18 -25 7
-49 14 -55 15 -5 0 -17 3 -25 6 -16 6 -95 27 -120 32 -8 2 -22 6 -30 9 -15 6
-103 29 -107 29 -2 -1 -17 4 -35 9 -37 11 -62 18 -97 25 -13 3 -31 9 -40 13
-9 5 -19 9 -24 10 -22 1 -83 14 -92 20 -5 3 -14 6 -20 8 -35 7 -55 12 -95 23
-57 15 -81 21 -100 23 -8 1 -17 5 -20 9 -3 3 -18 8 -35 11 -16 3 -42 10 -57
16 -16 6 -28 8 -28 6 0 -3 -15 1 -34 9 -19 8 -37 12 -40 9 -2 -3 -11 -1 -18 3
-13 9 -27 12 -63 19 -11 2 -20 4 -20 5 0 1 -7 3 -15 5 -8 2 -42 11 -75 21 -33
9 -69 18 -80 21 -39 8 -50 11 -50 13 0 1 -7 3 -15 5 -8 1 -35 9 -60 16 -25 7
-49 12 -54 10 -4 -1 -14 4 -22 10 -8 7 -17 9 -21 6 -3 -4 -12 -2 -20 5 -7 6
-16 8 -19 5 -3 -3 -21 1 -40 9 -19 8 -34 11 -34 7 0 -4 -5 -2 -12 5 -7 7 -22
12 -34 12 -12 0 -37 7 -57 15 -19 8 -37 11 -40 8 -4 -3 -13 0 -22 7 -8 7 -15
9 -15 5 0 -4 -7 -2 -15 5 -8 7 -15 10 -15 7 0 -3 -24 1 -52 10 -29 9 -59 16
-65 16 -7 0 -13 4 -13 8 0 5 -6 6 -14 3 -8 -3 -23 -1 -34 5 -10 5 -32 13 -48
16 -16 3 -34 7 -41 9 -7 1 -15 5 -19 8 -3 4 -12 4 -19 2 -7 -3 -16 -1 -20 5
-3 6 -17 11 -29 11 -13 0 -39 7 -59 15 -19 8 -37 11 -40 8 -4 -3 -13 -1 -20 5
-8 7 -17 9 -20 6 -3 -3 -12 -2 -19 2 -7 5 -16 9 -20 10 -5 1 -9 2 -10 4 -2 1
-16 4 -33 6 -16 3 -35 9 -41 15 -6 5 -13 6 -16 4 -3 -3 -18 -1 -34 6 -16 6
-38 13 -49 15 -11 3 -24 6 -30 8 -5 2 -28 6 -50 11 -22 4 -44 10 -50 14 -5 3
-19 7 -30 8 -11 2 -27 6 -35 10 -8 3 -22 7 -30 9 -34 6 -46 10 -57 17 -7 5
-13 6 -13 3 0 -3 -18 1 -40 9 -22 8 -40 12 -40 10 0 -3 -12 0 -27 6 -16 6 -36
12 -46 14 -10 2 -52 14 -95 25 -42 12 -87 24 -99 26 -12 2 -34 9 -48 14 -14 5
-25 7 -25 4 0 -4 -6 -1 -14 5 -8 6 -18 11 -22 10 -5 -1 -11 0 -14 1 -3 1 -12
3 -20 5 -25 7 -94 25 -115 31 -11 3 -28 6 -37 6 -10 -1 -18 3 -18 6 0 4 -8 9
-17 10 -30 3 -48 7 -58 13 -5 4 -28 10 -50 14 -22 5 -42 9 -45 9 -16 4 -107
29 -120 33 -8 4 -24 8 -35 10 -11 2 -27 6 -35 10 -8 3 -24 8 -35 10 -11 2 -69
17 -130 34 -60 17 -118 31 -127 32 -10 1 -18 6 -18 11 0 5 -3 7 -6 3 -3 -3
-29 1 -57 10 -28 8 -58 16 -67 18 -21 4 -100 25 -120 33 -21 7 -39 11 -82 18
-21 3 -38 9 -38 13 0 4 -14 8 -31 9 -18 1 -37 6 -43 9 -6 4 -20 9 -31 10 -11
2 -27 6 -35 10 -8 3 -19 7 -25 8 -5 1 -12 3 -15 4 -3 2 -14 4 -25 6 -11 2 -35
8 -52 13 -18 6 -33 8 -33 4 0 -3 -5 -1 -11 5 -6 6 -18 9 -25 6 -8 -3 -14 0
-14 6 0 7 -6 11 -12 9 -7 -1 -22 1 -33 5 -11 3 -31 8 -45 11 -14 3 -40 9 -57
15 -18 5 -33 7 -33 4 0 -3 -6 -1 -12 4 -23 18 -56 22 -62 8z"/>
</g>
</svg>
