<?xml version="1.0" standalone="no"?>
<!DOCTYPE svg PUBLIC "-//W3C//DTD SVG 20010904//EN"
 "http://www.w3.org/TR/2001/REC-SVG-20010904/DTD/svg10.dtd">
<svg version="1.0" xmlns="http://www.w3.org/2000/svg"
 width="1500.000000pt" height="1500.000000pt" viewBox="0 0 1500.000000 1500.000000"
 preserveAspectRatio="xMidYMid meet">
<metadata>
Created by potrace 1.11, written by Peter Selinger 2001-2013
</metadata>
<g transform="translate(0.000000,1500.000000) scale(0.100000,-0.100000)"
fill="#000000" stroke="none">
<path d="M7075 14404 c-364 -43 -562 -78 -801 -138 -259 -65 -559 -164 -559
-184 0 -6 416 -430 925 -942 509 -512 1136 -1144 1393 -1403 906 -914 1181
-1187 1194 -1187 11 0 13 313 13 1784 l0 1783 -42 16 c-284 103 -575 176 -863
216 -472 65 -548 72 -856 70 -167 -1 -342 -8 -404 -15z"/>
<path d="M9546 13992 c-3 -3 -6 -1125 -6 -2494 0 -1872 3 -2488 12 -2488 6 0
233 224 505 498 272 273 826 831 1231 1238 405 408 750 756 767 773 l29 31
-29 58 c-110 218 -327 568 -478 771 -63 86 -215 279 -242 307 -5 6 -41 46 -80
90 -147 164 -408 415 -525 504 -25 18 -49 38 -55 45 -5 6 -48 39 -95 73 -47
35 -93 70 -102 77 -39 32 -262 177 -368 240 -181 107 -552 290 -564 277z"/>
<path d="M5240 13879 c-63 -34 -136 -74 -163 -90 -26 -16 -49 -29 -51 -29 -9
0 -222 -134 -242 -152 -11 -10 -24 -18 -29 -18 -7 0 -265 -182 -328 -232 -309
-245 -557 -480 -752 -713 -32 -38 -61 -72 -65 -75 -3 -3 -42 -52 -87 -110
-135 -177 -275 -390 -397 -602 -66 -117 -216 -428 -216 -449 0 -5 1070 -9
2495 -9 1672 0 2495 3 2495 10 0 13 -2517 2524 -2533 2527 -7 2 -64 -25 -127
-58z"/>
<path d="M10853 9883 c-743 -747 -1534 -1541 -1758 -1766 -240 -241 -401 -409
-393 -412 7 -3 816 -4 1798 -3 l1785 3 41 125 c54 163 128 445 154 590 11 63
36 248 55 410 32 269 35 319 35 566 0 224 -4 309 -25 490 -52 459 -114 743
-240 1119 -62 184 -82 235 -93 235 -4 0 -616 -611 -1359 -1357z"/>
<path d="M2752 11008 c-126 -379 -170 -576 -229 -1018 l-38 -285 -2 -950 c-2
-522 -2 -1080 -1 -1240 l3 -290 325 327 c247 248 2935 2948 3462 3477 48 48
85 91 81 94 -3 4 -806 7 -1783 7 l-1777 0 -41 -122z"/>
<path d="M5225 9555 c-208 -210 -2118 -2134 -2627 -2645 l-118 -117 0 -2999
c0 -1650 0 -3045 0 -3101 l0 -103 1515 0 1515 0 0 4615 c0 3686 -3 4615 -12
4614 -7 0 -130 -119 -273 -264z"/>
<path d="M5810 6456 l0 -1824 28 -10 c117 -47 473 -148 634 -181 85 -18 246
-43 358 -56 25 -3 115 -15 200 -27 215 -30 717 -37 930 -13 533 60 910 142
1290 282 131 48 150 57 142 70 -4 6 -468 476 -1032 1043 -564 567 -1258 1266
-1543 1553 -843 850 -981 987 -994 987 -11 0 -13 -345 -13 -1824z"/>
<path d="M7150 7419 c0 -16 2572 -2579 2588 -2579 15 0 162 77 280 147 41 24
76 43 78 43 4 0 34 19 259 170 77 51 142 96 145 99 3 4 30 24 60 46 30 22 57
42 60 45 3 3 39 32 80 65 195 154 450 394 595 560 33 37 67 75 76 84 76 77
292 370 421 571 138 213 400 735 380 754 -11 12 -5022 6 -5022 -5z"/>
</g>
</svg>
